<?xml version="1.0" encoding="UTF-8" standalone="no"?>
<!DOCTYPE svg PUBLIC "-//W3C//DTD SVG 1.0//EN" "http://www.w3.org/TR/2001/PR-SVG-20010719/DTD/svg10.dtd">
<svg width="6cm" height="13cm" viewBox="1059 -289 104 241" xmlns="http://www.w3.org/2000/svg" xmlns:xlink="http://www.w3.org/1999/xlink">
  <g>
    <rect style="fill: #ffffff" x="1060" y="-86" width="102" height="38"/>
    <rect style="fill: none; fill-opacity:0; stroke-width: 1; stroke: #000000" x="1060" y="-86" width="102" height="38"/>
    <text font-size="12.8" style="fill: #000000;text-anchor:middle;font-family:sans-serif;font-style:normal;font-weight:normal" x="1111" y="-63.1">
      <tspan x="1111" y="-63.1">Item</tspan>
    </text>
  </g>
  <g>
    <rect style="fill: #ffffff" x="1060" y="-150" width="102" height="38"/>
    <rect style="fill: none; fill-opacity:0; stroke-width: 1; stroke: #000000" x="1060" y="-150" width="102" height="38"/>
    <text font-size="12.8" style="fill: #000000;text-anchor:middle;font-family:sans-serif;font-style:normal;font-weight:normal" x="1111" y="-127.1">
      <tspan x="1111" y="-127.1">Collection</tspan>
    </text>
  </g>
  <g>
    <rect style="fill: #ffffff" x="1060" y="-217.254" width="102.2" height="37"/>
    <rect style="fill: none; fill-opacity:0; stroke-width: 1; stroke: #000000" x="1060" y="-217.254" width="102.2" height="37"/>
    <text font-size="12.8" style="fill: #000000;text-anchor:middle;font-family:sans-serif;font-style:normal;font-weight:normal" x="1111.1" y="-194.854">
      <tspan x="1111.1" y="-194.854">Corpus</tspan>
    </text>
  </g>
  <g>
    <rect style="fill: #ffffff" x="1060" y="-287.664" width="102.2" height="38"/>
    <rect style="fill: none; fill-opacity:0; stroke-width: 1; stroke: #000000" x="1060" y="-287.664" width="102.2" height="38"/>
    <text font-size="12.8" style="fill: #000000;text-anchor:middle;font-family:sans-serif;font-style:normal;font-weight:normal" x="1111.1" y="-264.764">
      <tspan x="1111.1" y="-264.764">Fonds</tspan>
    </text>
  </g>
  <g>
    <line style="fill: none; fill-opacity:0; stroke-width: 2; stroke: #000000" x1="1111" y1="-86" x2="1111" y2="-102.264"/>
    <polygon style="fill: #000000" points="1111,-109.764 1116,-99.7639 1111,-102.264 1106,-99.7639 "/>
    <polygon style="fill: none; fill-opacity:0; stroke-width: 2; stroke: #000000" points="1111,-109.764 1116,-99.7639 1111,-102.264 1106,-99.7639 "/>
  </g>
  <g>
    <line style="fill: none; fill-opacity:0; stroke-width: 2; stroke: #000000" x1="1111.07" y1="-170.517" x2="1111.03" y2="-159.736"/>
    <polygon style="fill: #000000" points="1111.09,-178.017 1116.06,-168.001 1111.07,-170.517 1106.06,-168.034 "/>
    <polygon style="fill: none; fill-opacity:0; stroke-width: 2; stroke: #000000" points="1111.09,-178.017 1116.06,-168.001 1111.07,-170.517 1106.06,-168.034 "/>
    <polygon style="fill: #000000" points="1111.01,-152.236 1106.04,-162.253 1111.03,-159.736 1116.04,-162.219 "/>
    <polygon style="fill: none; fill-opacity:0; stroke-width: 2; stroke: #000000" points="1111.01,-152.236 1106.04,-162.253 1111.03,-159.736 1116.04,-162.219 "/>
  </g>
  <g>
    <line style="fill: none; fill-opacity:0; stroke-width: 2; stroke: #000000" x1="1111.1" y1="-239.928" x2="1111.1" y2="-226.99"/>
    <polygon style="fill: #000000" points="1111.1,-247.428 1116.1,-237.428 1111.1,-239.928 1106.1,-237.428 "/>
    <polygon style="fill: none; fill-opacity:0; stroke-width: 2; stroke: #000000" points="1111.1,-247.428 1116.1,-237.428 1111.1,-239.928 1106.1,-237.428 "/>
    <polygon style="fill: #000000" points="1111.1,-219.49 1106.1,-229.49 1111.1,-226.99 1116.1,-229.49 "/>
    <polygon style="fill: none; fill-opacity:0; stroke-width: 2; stroke: #000000" points="1111.1,-219.49 1106.1,-229.49 1111.1,-226.99 1116.1,-229.49 "/>
  </g>
</svg>
