<?xml version="1.0" encoding="UTF-8" standalone="no"?>
<!DOCTYPE svg PUBLIC "-//W3C//DTD SVG 1.0//EN" "http://www.w3.org/TR/2001/PR-SVG-20010719/DTD/svg10.dtd">
<svg width="6cm" height="11cm" viewBox="1051 -253 112 206" xmlns="http://www.w3.org/2000/svg" xmlns:xlink="http://www.w3.org/1999/xlink">
  <g>
    <rect style="fill: #ffffff" x="1060" y="-86" width="102" height="38"/>
    <rect style="fill: none; fill-opacity:0; stroke-width: 1; stroke: #000000" x="1060" y="-86" width="102" height="38"/>
    <text font-size="12.8" style="fill: #000000;text-anchor:middle;font-family:sans-serif;font-style:normal;font-weight:normal" x="1111" y="-63.1">
      <tspan x="1111" y="-63.1">Item</tspan>
    </text>
  </g>
  <g>
    <rect style="fill: #ffffff" x="1060" y="-150" width="102" height="38"/>
    <rect style="fill: none; fill-opacity:0; stroke-width: 1; stroke: #000000" x="1060" y="-150" width="102" height="38"/>
    <text font-size="12.8" style="fill: #000000;text-anchor:middle;font-family:sans-serif;font-style:normal;font-weight:normal" x="1111" y="-127.1">
      <tspan x="1111" y="-127.1">Collection</tspan>
    </text>
  </g>
  <g>
    <rect style="fill: #ffffff" x="1060" y="-223.589" width="102.2" height="37"/>
    <rect style="fill: none; fill-opacity:0; stroke-width: 1; stroke: #000000" x="1060" y="-223.589" width="102.2" height="37"/>
    <text font-size="12.8" style="fill: #000000;text-anchor:middle;font-family:sans-serif;font-style:normal;font-weight:normal" x="1111.1" y="-201.189">
      <tspan x="1111.1" y="-201.189">Ressource</tspan>
    </text>
  </g>
  <g>
    <line style="fill: none; fill-opacity:0; stroke-width: 2; stroke: #000000" x1="1111" y1="-86" x2="1111" y2="-102.264"/>
    <polygon style="fill: #000000" points="1111,-109.764 1116,-99.7639 1111,-102.264 1106,-99.7639 "/>
    <polygon style="fill: none; fill-opacity:0; stroke-width: 2; stroke: #000000" points="1111,-109.764 1116,-99.7639 1111,-102.264 1106,-99.7639 "/>
  </g>
  <g>
    <line style="fill: none; fill-opacity:0; stroke-width: 2; stroke: #000000" x1="1111.07" y1="-176.853" x2="1111.03" y2="-159.736"/>
    <polygon style="fill: #000000" points="1111.09,-184.353 1116.07,-174.339 1111.07,-176.853 1106.07,-174.367 "/>
    <polygon style="fill: none; fill-opacity:0; stroke-width: 2; stroke: #000000" points="1111.09,-184.353 1116.07,-174.339 1111.07,-176.853 1106.07,-174.367 "/>
    <polygon style="fill: #000000" points="1111.01,-152.236 1106.03,-162.25 1111.03,-159.736 1116.03,-162.222 "/>
    <polygon style="fill: none; fill-opacity:0; stroke-width: 2; stroke: #000000" points="1111.01,-152.236 1106.03,-162.25 1111.03,-159.736 1116.03,-162.222 "/>
  </g>
  <g>
    <path style="fill: none; fill-opacity:0; stroke-width: 2; stroke: #000000" d="M 1110.39,-232.818 A 25.6909,25.6909 0 0 0 1060.71,-232.818"/>
    <polygon style="fill: #000000" points="1059.77,-225.813 1053.75,-235.235 1058.98,-233.272 1063.69,-236.281 "/>
    <polygon style="fill: none; fill-opacity:0; stroke-width: 2; stroke: #000000" points="1059.77,-225.813 1053.75,-235.235 1058.98,-233.272 1063.69,-236.281 "/>
    <polygon style="fill: #000000" points="1111.33,-225.813 1107.41,-236.281 1112.12,-233.272 1117.35,-235.235 "/>
    <polygon style="fill: none; fill-opacity:0; stroke-width: 2; stroke: #000000" points="1111.33,-225.813 1107.41,-236.281 1112.12,-233.272 1117.35,-235.235 "/>
  </g>
</svg>
