<?xml version="1.0" encoding="UTF-8" standalone="no"?>
<!DOCTYPE svg PUBLIC "-//W3C//DTD SVG 1.0//EN" "http://www.w3.org/TR/2001/PR-SVG-20010719/DTD/svg10.dtd">
<svg width="51cm" height="33cm" viewBox="38 25 1002 651" xmlns="http://www.w3.org/2000/svg" xmlns:xlink="http://www.w3.org/1999/xlink">
  <g>
    <rect style="fill: #ffffff" x="670" y="26.04" width="240" height="220"/>
    <path style="fill: #ffffff" d="M 670,26.04 A 10,10 0 0 0 660,36.04 L 670,36.04 z"/>
    <path style="fill: #ffffff" d="M 920,36.04 A 10,10 0 0 0 910,26.04 L 910,36.04 z"/>
    <rect style="fill: #ffffff" x="660" y="36.04" width="260" height="200"/>
    <path style="fill: #ffffff" d="M 660,236.04 A 10,10 0 0 0 670,246.04 L 670,236.04 z"/>
    <path style="fill: #ffffff" d="M 910,246.04 A 10,10 0 0 0 920,236.04 L 910,236.04 z"/>
    <line style="fill: none; fill-opacity:0; stroke-width: 2; stroke: #000000" x1="670" y1="26.04" x2="910" y2="26.04"/>
    <line style="fill: none; fill-opacity:0; stroke-width: 2; stroke: #000000" x1="670" y1="246.04" x2="910" y2="246.04"/>
    <path style="fill: none; fill-opacity:0; stroke-width: 2; stroke: #000000" d="M 670,26.04 A 10,10 0 0 0 660,36.04"/>
    <path style="fill: none; fill-opacity:0; stroke-width: 2; stroke: #000000" d="M 920,36.04 A 10,10 0 0 0 910,26.04"/>
    <line style="fill: none; fill-opacity:0; stroke-width: 2; stroke: #000000" x1="660" y1="36.04" x2="660" y2="236.04"/>
    <line style="fill: none; fill-opacity:0; stroke-width: 2; stroke: #000000" x1="920" y1="36.04" x2="920" y2="236.04"/>
    <path style="fill: none; fill-opacity:0; stroke-width: 2; stroke: #000000" d="M 660,236.04 A 10,10 0 0 0 670,246.04"/>
    <path style="fill: none; fill-opacity:0; stroke-width: 2; stroke: #000000" d="M 910,246.04 A 10,10 0 0 0 920,236.04"/>
    <text font-size="12.8" style="fill: #00ff00;text-anchor:middle;font-family:sans-serif;font-style:normal;font-weight:normal" x="790" y="139.94">
      <tspan x="790" y="139.94"></tspan>
    </text>
  </g>
  <g>
    <rect style="fill: #ffffff" x="50" y="486.04" width="520" height="180"/>
    <path style="fill: #ffffff" d="M 50,486.04 A 10,10 0 0 0 40,496.04 L 50,496.04 z"/>
    <path style="fill: #ffffff" d="M 580,496.04 A 10,10 0 0 0 570,486.04 L 570,496.04 z"/>
    <rect style="fill: #ffffff" x="40" y="496.04" width="540" height="160"/>
    <path style="fill: #ffffff" d="M 40,656.04 A 10,10 0 0 0 50,666.04 L 50,656.04 z"/>
    <path style="fill: #ffffff" d="M 570,666.04 A 10,10 0 0 0 580,656.04 L 570,656.04 z"/>
    <line style="fill: none; fill-opacity:0; stroke-width: 2; stroke: #000000" x1="50" y1="486.04" x2="570" y2="486.04"/>
    <line style="fill: none; fill-opacity:0; stroke-width: 2; stroke: #000000" x1="50" y1="666.04" x2="570" y2="666.04"/>
    <path style="fill: none; fill-opacity:0; stroke-width: 2; stroke: #000000" d="M 50,486.04 A 10,10 0 0 0 40,496.04"/>
    <path style="fill: none; fill-opacity:0; stroke-width: 2; stroke: #000000" d="M 580,496.04 A 10,10 0 0 0 570,486.04"/>
    <line style="fill: none; fill-opacity:0; stroke-width: 2; stroke: #000000" x1="40" y1="496.04" x2="40" y2="656.04"/>
    <line style="fill: none; fill-opacity:0; stroke-width: 2; stroke: #000000" x1="580" y1="496.04" x2="580" y2="656.04"/>
    <path style="fill: none; fill-opacity:0; stroke-width: 2; stroke: #000000" d="M 40,656.04 A 10,10 0 0 0 50,666.04"/>
    <path style="fill: none; fill-opacity:0; stroke-width: 2; stroke: #000000" d="M 570,666.04 A 10,10 0 0 0 580,656.04"/>
    <text font-size="12.8" style="fill: #00ff00;text-anchor:middle;font-family:sans-serif;font-style:normal;font-weight:normal" x="310" y="579.94">
      <tspan x="310" y="579.94"></tspan>
    </text>
  </g>
  <g>
    <rect style="fill: #ffffff" x="50" y="26.04" width="520" height="420"/>
    <path style="fill: #ffffff" d="M 50,26.04 A 10,10 0 0 0 40,36.04 L 50,36.04 z"/>
    <path style="fill: #ffffff" d="M 580,36.04 A 10,10 0 0 0 570,26.04 L 570,36.04 z"/>
    <rect style="fill: #ffffff" x="40" y="36.04" width="540" height="400"/>
    <path style="fill: #ffffff" d="M 40,436.04 A 10,10 0 0 0 50,446.04 L 50,436.04 z"/>
    <path style="fill: #ffffff" d="M 570,446.04 A 10,10 0 0 0 580,436.04 L 570,436.04 z"/>
    <line style="fill: none; fill-opacity:0; stroke-width: 2; stroke: #000000" x1="50" y1="26.04" x2="570" y2="26.04"/>
    <line style="fill: none; fill-opacity:0; stroke-width: 2; stroke: #000000" x1="50" y1="446.04" x2="570" y2="446.04"/>
    <path style="fill: none; fill-opacity:0; stroke-width: 2; stroke: #000000" d="M 50,26.04 A 10,10 0 0 0 40,36.04"/>
    <path style="fill: none; fill-opacity:0; stroke-width: 2; stroke: #000000" d="M 580,36.04 A 10,10 0 0 0 570,26.04"/>
    <line style="fill: none; fill-opacity:0; stroke-width: 2; stroke: #000000" x1="40" y1="36.04" x2="40" y2="436.04"/>
    <line style="fill: none; fill-opacity:0; stroke-width: 2; stroke: #000000" x1="580" y1="36.04" x2="580" y2="436.04"/>
    <path style="fill: none; fill-opacity:0; stroke-width: 2; stroke: #000000" d="M 40,436.04 A 10,10 0 0 0 50,446.04"/>
    <path style="fill: none; fill-opacity:0; stroke-width: 2; stroke: #000000" d="M 570,446.04 A 10,10 0 0 0 580,436.04"/>
    <text font-size="12.8" style="fill: #00ff00;text-anchor:middle;font-family:sans-serif;font-style:normal;font-weight:normal" x="310" y="239.94">
      <tspan x="310" y="239.94"></tspan>
    </text>
  </g>
  <g>
    <rect style="fill: #1e90ff" x="710" y="86.04" width="160" height="60"/>
    <path style="fill: #1e90ff" d="M 710,86.04 A 10,10 0 0 0 700,96.04 L 710,96.04 z"/>
    <path style="fill: #1e90ff" d="M 880,96.04 A 10,10 0 0 0 870,86.04 L 870,96.04 z"/>
    <rect style="fill: #1e90ff" x="700" y="96.04" width="180" height="40"/>
    <path style="fill: #1e90ff" d="M 700,136.04 A 10,10 0 0 0 710,146.04 L 710,136.04 z"/>
    <path style="fill: #1e90ff" d="M 870,146.04 A 10,10 0 0 0 880,136.04 L 870,136.04 z"/>
    <line style="fill: none; fill-opacity:0; stroke-width: 2.35099e-37; stroke: #000000" x1="710" y1="86.04" x2="870" y2="86.04"/>
    <line style="fill: none; fill-opacity:0; stroke-width: 2.35099e-37; stroke: #000000" x1="710" y1="146.04" x2="870" y2="146.04"/>
    <path style="fill: none; fill-opacity:0; stroke-width: 2.35099e-37; stroke: #000000" d="M 710,86.04 A 10,10 0 0 0 700,96.04"/>
    <path style="fill: none; fill-opacity:0; stroke-width: 2.35099e-37; stroke: #000000" d="M 880,96.04 A 10,10 0 0 0 870,86.04"/>
    <line style="fill: none; fill-opacity:0; stroke-width: 2.35099e-37; stroke: #000000" x1="700" y1="96.04" x2="700" y2="136.04"/>
    <line style="fill: none; fill-opacity:0; stroke-width: 2.35099e-37; stroke: #000000" x1="880" y1="96.04" x2="880" y2="136.04"/>
    <path style="fill: none; fill-opacity:0; stroke-width: 2.35099e-37; stroke: #000000" d="M 700,136.04 A 10,10 0 0 0 710,146.04"/>
    <path style="fill: none; fill-opacity:0; stroke-width: 2.35099e-37; stroke: #000000" d="M 870,146.04 A 10,10 0 0 0 880,136.04"/>
    <text font-size="19.7556" style="fill: #ffffff;text-anchor:middle;font-family:sans-serif;font-style:normal;font-weight:normal" x="790" y="122.043">
      <tspan x="790" y="122.043">Audio</tspan>
    </text>
  </g>
  <g>
    <rect style="fill: #c3d9ff" x="90" y="86.04" width="437.071" height="120"/>
    <path style="fill: #c3d9ff" d="M 90,86.04 A 10,10 0 0 0 80,96.04 L 90,96.04 z"/>
    <path style="fill: #c3d9ff" d="M 537.071,96.04 A 10,10 0 0 0 527.071,86.04 L 527.071,96.04 z"/>
    <rect style="fill: #c3d9ff" x="80" y="96.04" width="457.071" height="100"/>
    <path style="fill: #c3d9ff" d="M 80,196.04 A 10,10 0 0 0 90,206.04 L 90,196.04 z"/>
    <path style="fill: #c3d9ff" d="M 527.071,206.04 A 10,10 0 0 0 537.071,196.04 L 527.071,196.04 z"/>
    <line style="fill: none; fill-opacity:0; stroke-width: 2.35099e-37; stroke: #000000" x1="90" y1="86.04" x2="527.071" y2="86.04"/>
    <line style="fill: none; fill-opacity:0; stroke-width: 2.35099e-37; stroke: #000000" x1="90" y1="206.04" x2="527.071" y2="206.04"/>
    <path style="fill: none; fill-opacity:0; stroke-width: 2.35099e-37; stroke: #000000" d="M 90,86.04 A 10,10 0 0 0 80,96.04"/>
    <path style="fill: none; fill-opacity:0; stroke-width: 2.35099e-37; stroke: #000000" d="M 537.071,96.04 A 10,10 0 0 0 527.071,86.04"/>
    <line style="fill: none; fill-opacity:0; stroke-width: 2.35099e-37; stroke: #000000" x1="80" y1="96.04" x2="80" y2="196.04"/>
    <line style="fill: none; fill-opacity:0; stroke-width: 2.35099e-37; stroke: #000000" x1="537.071" y1="96.04" x2="537.071" y2="196.04"/>
    <path style="fill: none; fill-opacity:0; stroke-width: 2.35099e-37; stroke: #000000" d="M 80,196.04 A 10,10 0 0 0 90,206.04"/>
    <path style="fill: none; fill-opacity:0; stroke-width: 2.35099e-37; stroke: #000000" d="M 527.071,206.04 A 10,10 0 0 0 537.071,196.04"/>
    <text font-size="19.7556" style="fill: #000000;text-anchor:middle;font-family:sans-serif;font-style:normal;font-weight:normal" x="308.536" y="152.043">
      <tspan x="308.536" y="152.043">Decoder</tspan>
    </text>
  </g>
  <g>
    <rect style="fill: #c3d9ff" x="363" y="266.04" width="167" height="60"/>
    <path style="fill: #c3d9ff" d="M 363,266.04 A 10,10 0 0 0 353,276.04 L 363,276.04 z"/>
    <path style="fill: #c3d9ff" d="M 540,276.04 A 10,10 0 0 0 530,266.04 L 530,276.04 z"/>
    <rect style="fill: #c3d9ff" x="353" y="276.04" width="187" height="40"/>
    <path style="fill: #c3d9ff" d="M 353,316.04 A 10,10 0 0 0 363,326.04 L 363,316.04 z"/>
    <path style="fill: #c3d9ff" d="M 530,326.04 A 10,10 0 0 0 540,316.04 L 530,316.04 z"/>
    <line style="fill: none; fill-opacity:0; stroke-width: 2.35099e-37; stroke: #000000" x1="363" y1="266.04" x2="530" y2="266.04"/>
    <line style="fill: none; fill-opacity:0; stroke-width: 2.35099e-37; stroke: #000000" x1="363" y1="326.04" x2="530" y2="326.04"/>
    <path style="fill: none; fill-opacity:0; stroke-width: 2.35099e-37; stroke: #000000" d="M 363,266.04 A 10,10 0 0 0 353,276.04"/>
    <path style="fill: none; fill-opacity:0; stroke-width: 2.35099e-37; stroke: #000000" d="M 540,276.04 A 10,10 0 0 0 530,266.04"/>
    <line style="fill: none; fill-opacity:0; stroke-width: 2.35099e-37; stroke: #000000" x1="353" y1="276.04" x2="353" y2="316.04"/>
    <line style="fill: none; fill-opacity:0; stroke-width: 2.35099e-37; stroke: #000000" x1="540" y1="276.04" x2="540" y2="316.04"/>
    <path style="fill: none; fill-opacity:0; stroke-width: 2.35099e-37; stroke: #000000" d="M 353,316.04 A 10,10 0 0 0 363,326.04"/>
    <path style="fill: none; fill-opacity:0; stroke-width: 2.35099e-37; stroke: #000000" d="M 530,326.04 A 10,10 0 0 0 540,316.04"/>
    <text font-size="19.7556" style="fill: #000000;text-anchor:middle;font-family:sans-serif;font-style:normal;font-weight:normal" x="446.5" y="302.043">
      <tspan x="446.5" y="302.043">Encoder</tspan>
    </text>
  </g>
  <g>
    <polyline style="fill: none; fill-opacity:0; stroke-width: 10; stroke: #1af5dd" points="132.95,326.04 128.95,326.04 128.95,507.36 "/>
    <polygon style="fill: #1af5dd" points="128.95,514.86 123.95,504.86 128.95,507.36 133.95,504.86 "/>
    <polygon style="fill: none; fill-opacity:0; stroke-width: 10; stroke: #1af5dd" points="128.95,514.86 123.95,504.86 128.95,507.36 133.95,504.86 "/>
  </g>
  <g>
    <polyline style="fill: none; fill-opacity:0; stroke-width: 10; stroke: #ffa500" points="277.95,326.04 274.95,326.04 274.95,507.36 "/>
    <polygon style="fill: #ffa500" points="274.95,514.86 269.95,504.86 274.95,507.36 279.95,504.86 "/>
    <polygon style="fill: none; fill-opacity:0; stroke-width: 10; stroke: #ffa500" points="274.95,514.86 269.95,504.86 274.95,507.36 279.95,504.86 "/>
  </g>
  <g>
    <polyline style="fill: none; fill-opacity:0; stroke-width: 10; stroke: #0000ff" points="128.95,206.04 128.95,247.36 "/>
    <polygon style="fill: #0000ff" points="128.95,254.86 123.95,244.86 128.95,247.36 133.95,244.86 "/>
    <polygon style="fill: none; fill-opacity:0; stroke-width: 10; stroke: #0000ff" points="128.95,254.86 123.95,244.86 128.95,247.36 133.95,244.86 "/>
  </g>
  <g>
    <rect style="fill: #7dff7d" x="469.3" y="346.04" width="61.4" height="60"/>
    <path style="fill: #7dff7d" d="M 469.3,346.04 A 10,10 0 0 0 459.3,356.04 L 469.3,356.04 z"/>
    <path style="fill: #7dff7d" d="M 540.7,356.04 A 10,10 0 0 0 530.7,346.04 L 530.7,356.04 z"/>
    <rect style="fill: #7dff7d" x="459.3" y="356.04" width="81.4" height="40"/>
    <path style="fill: #7dff7d" d="M 459.3,396.04 A 10,10 0 0 0 469.3,406.04 L 469.3,396.04 z"/>
    <path style="fill: #7dff7d" d="M 530.7,406.04 A 10,10 0 0 0 540.7,396.04 L 530.7,396.04 z"/>
    <line style="fill: none; fill-opacity:0; stroke-width: 2.35099e-37; stroke: #000000" x1="469.3" y1="346.04" x2="530.7" y2="346.04"/>
    <line style="fill: none; fill-opacity:0; stroke-width: 2.35099e-37; stroke: #000000" x1="469.3" y1="406.04" x2="530.7" y2="406.04"/>
    <path style="fill: none; fill-opacity:0; stroke-width: 2.35099e-37; stroke: #000000" d="M 469.3,346.04 A 10,10 0 0 0 459.3,356.04"/>
    <path style="fill: none; fill-opacity:0; stroke-width: 2.35099e-37; stroke: #000000" d="M 540.7,356.04 A 10,10 0 0 0 530.7,346.04"/>
    <line style="fill: none; fill-opacity:0; stroke-width: 2.35099e-37; stroke: #000000" x1="459.3" y1="356.04" x2="459.3" y2="396.04"/>
    <line style="fill: none; fill-opacity:0; stroke-width: 2.35099e-37; stroke: #000000" x1="540.7" y1="356.04" x2="540.7" y2="396.04"/>
    <path style="fill: none; fill-opacity:0; stroke-width: 2.35099e-37; stroke: #000000" d="M 459.3,396.04 A 10,10 0 0 0 469.3,406.04"/>
    <path style="fill: none; fill-opacity:0; stroke-width: 2.35099e-37; stroke: #000000" d="M 530.7,406.04 A 10,10 0 0 0 540.7,396.04"/>
    <text font-size="19.7556" style="fill: #000000;text-anchor:middle;font-family:sans-serif;font-style:normal;font-weight:normal" x="500" y="382.043">
      <tspan x="500" y="382.043">Cache</tspan>
    </text>
  </g>
  <text font-size="12.8" style="fill: #000000;text-anchor:start;font-family:sans-serif;font-style:normal;font-weight:normal" x="400" y="226.04">
    <tspan x="400" y="226.04"></tspan>
  </text>
  <text font-size="22.5778" style="fill: #000000;text-anchor:start;font-family:sans-serif;font-style:normal;font-weight:700" x="200" y="66.04">
    <tspan x="200" y="66.04">TimeSide Engine</tspan>
  </text>
  <g>
    <rect style="fill: #ff0400" x="710" y="146.04" width="158.05" height="69.3889"/>
    <path style="fill: #ff0400" d="M 710,146.04 A 10,10 0 0 0 700,156.04 L 710,156.04 z"/>
    <path style="fill: #ff0400" d="M 878.05,156.04 A 10,10 0 0 0 868.05,146.04 L 868.05,156.04 z"/>
    <rect style="fill: #ff0400" x="700" y="156.04" width="178.05" height="49.3889"/>
    <path style="fill: #ff0400" d="M 700,205.429 A 10,10 0 0 0 710,215.429 L 710,205.429 z"/>
    <path style="fill: #ff0400" d="M 868.05,215.429 A 10,10 0 0 0 878.05,205.429 L 868.05,205.429 z"/>
    <line style="fill: none; fill-opacity:0; stroke-width: 2.35099e-37; stroke: #000000" x1="710" y1="146.04" x2="868.05" y2="146.04"/>
    <line style="fill: none; fill-opacity:0; stroke-width: 2.35099e-37; stroke: #000000" x1="710" y1="215.429" x2="868.05" y2="215.429"/>
    <path style="fill: none; fill-opacity:0; stroke-width: 2.35099e-37; stroke: #000000" d="M 710,146.04 A 10,10 0 0 0 700,156.04"/>
    <path style="fill: none; fill-opacity:0; stroke-width: 2.35099e-37; stroke: #000000" d="M 878.05,156.04 A 10,10 0 0 0 868.05,146.04"/>
    <line style="fill: none; fill-opacity:0; stroke-width: 2.35099e-37; stroke: #000000" x1="700" y1="156.04" x2="700" y2="205.429"/>
    <line style="fill: none; fill-opacity:0; stroke-width: 2.35099e-37; stroke: #000000" x1="878.05" y1="156.04" x2="878.05" y2="205.429"/>
    <path style="fill: none; fill-opacity:0; stroke-width: 2.35099e-37; stroke: #000000" d="M 700,205.429 A 10,10 0 0 0 710,215.429"/>
    <path style="fill: none; fill-opacity:0; stroke-width: 2.35099e-37; stroke: #000000" d="M 868.05,215.429 A 10,10 0 0 0 878.05,205.429"/>
    <text font-size="19.7556" style="fill: #ffffff;text-anchor:middle;font-family:sans-serif;font-style:normal;font-weight:normal" x="789.025" y="174.39">
      <tspan x="789.025" y="174.39">Metadata</tspan>
      <tspan x="789.025" y="199.084">(ID3, OGG)</tspan>
    </text>
  </g>
  <text font-size="12.8" style="fill: #000000;text-anchor:start;font-family:sans-serif;font-style:normal;font-weight:normal" x="308.536" y="146.04">
    <tspan x="308.536" y="146.04"></tspan>
  </text>
  <g>
    <polyline style="fill: none; fill-opacity:0; stroke-width: 10; stroke: #ff0000" points="488,206.04 488,247.36 "/>
    <polygon style="fill: #ff0000" points="488,254.86 483,244.86 488,247.36 493,244.86 "/>
    <polygon style="fill: none; fill-opacity:0; stroke-width: 10; stroke: #ff0000" points="488,254.86 483,244.86 488,247.36 493,244.86 "/>
  </g>
  <g>
    <polyline style="fill: none; fill-opacity:0; stroke-width: 10; stroke: #0000ff" points="403,206.04 402.828,247.36 "/>
    <polygon style="fill: #0000ff" points="402.797,254.86 397.838,244.839 402.828,247.36 407.838,244.881 "/>
    <polygon style="fill: none; fill-opacity:0; stroke-width: 10; stroke: #0000ff" points="402.797,254.86 397.838,244.839 402.828,247.36 407.838,244.881 "/>
  </g>
  <g>
    <polyline style="fill: none; fill-opacity:0; stroke-width: 10; stroke: #0000ff" points="278,207.04 277.966,247.36 "/>
    <polygon style="fill: #0000ff" points="277.959,254.86 272.968,244.855 277.966,247.36 282.968,244.864 "/>
    <polygon style="fill: none; fill-opacity:0; stroke-width: 10; stroke: #0000ff" points="277.959,254.86 272.968,244.855 277.966,247.36 282.968,244.864 "/>
  </g>
  <text font-size="22.5778" style="fill: #000000;text-anchor:start;font-family:sans-serif;font-style:normal;font-weight:700" x="240" y="646.04">
    <tspan x="240" y="646.04">TimeSide UI</tspan>
  </text>
  <g>
    <rect style="fill: #ffff00" x="90" y="526.04" width="440" height="80"/>
    <path style="fill: #ffff00" d="M 90,526.04 A 10,10 0 0 0 80,536.04 L 90,536.04 z"/>
    <path style="fill: #ffff00" d="M 540,536.04 A 10,10 0 0 0 530,526.04 L 530,536.04 z"/>
    <rect style="fill: #ffff00" x="80" y="536.04" width="460" height="60"/>
    <path style="fill: #ffff00" d="M 80,596.04 A 10,10 0 0 0 90,606.04 L 90,596.04 z"/>
    <path style="fill: #ffff00" d="M 530,606.04 A 10,10 0 0 0 540,596.04 L 530,596.04 z"/>
    <line style="fill: none; fill-opacity:0; stroke-width: 2.35099e-37; stroke: #000000" x1="90" y1="526.04" x2="530" y2="526.04"/>
    <line style="fill: none; fill-opacity:0; stroke-width: 2.35099e-37; stroke: #000000" x1="90" y1="606.04" x2="530" y2="606.04"/>
    <path style="fill: none; fill-opacity:0; stroke-width: 2.35099e-37; stroke: #000000" d="M 90,526.04 A 10,10 0 0 0 80,536.04"/>
    <path style="fill: none; fill-opacity:0; stroke-width: 2.35099e-37; stroke: #000000" d="M 540,536.04 A 10,10 0 0 0 530,526.04"/>
    <line style="fill: none; fill-opacity:0; stroke-width: 2.35099e-37; stroke: #000000" x1="80" y1="536.04" x2="80" y2="596.04"/>
    <line style="fill: none; fill-opacity:0; stroke-width: 2.35099e-37; stroke: #000000" x1="540" y1="536.04" x2="540" y2="596.04"/>
    <path style="fill: none; fill-opacity:0; stroke-width: 2.35099e-37; stroke: #000000" d="M 80,596.04 A 10,10 0 0 0 90,606.04"/>
    <path style="fill: none; fill-opacity:0; stroke-width: 2.35099e-37; stroke: #000000" d="M 530,606.04 A 10,10 0 0 0 540,596.04"/>
    <text font-size="19.7556" style="fill: #000000;text-anchor:middle;font-family:sans-serif;font-style:normal;font-weight:normal" x="310" y="572.043">
      <tspan x="310" y="572.043">Player (HTML5, CSS, JavaScript)</tspan>
    </text>
  </g>
  <text font-size="12.8" style="fill: #000000;text-anchor:start;font-family:sans-serif;font-style:normal;font-weight:normal" x="310" y="606.04">
    <tspan x="310" y="606.04"></tspan>
  </text>
  <g>
    <polyline style="fill: none; fill-opacity:0; stroke-width: 10; stroke: #a020f0" points="500,406.04 500,507.36 "/>
    <polygon style="fill: #a020f0" points="500,514.86 495,504.86 500,507.36 505,504.86 "/>
    <polygon style="fill: none; fill-opacity:0; stroke-width: 10; stroke: #a020f0" points="500,514.86 495,504.86 500,507.36 505,504.86 "/>
  </g>
  <g>
    <polyline style="fill: none; fill-opacity:0; stroke-width: 10; stroke: #a020f0" points="380,386.04 380,507.36 "/>
    <polygon style="fill: #a020f0" points="380,514.86 375,504.86 380,507.36 385,504.86 "/>
    <polygon style="fill: none; fill-opacity:0; stroke-width: 10; stroke: #a020f0" points="380,514.86 375,504.86 380,507.36 385,504.86 "/>
  </g>
  <g>
    <rect style="fill: #ffffff" x="620" y="406.04" width="420" height="269"/>
    <rect style="fill: none; fill-opacity:0; stroke-width: 2.35099e-37; stroke: #ff0000" x="620" y="406.04" width="420" height="269"/>
    <text font-size="12.8" style="fill: #00ff00;text-anchor:middle;font-family:sans-serif;font-style:normal;font-weight:normal" x="830" y="544.44">
      <tspan x="830" y="544.44"></tspan>
    </text>
  </g>
  <g>
    <polyline style="fill: none; fill-opacity:0; stroke-width: 8; stroke: #0000ff" points="640,486.04 680,486.04 680,486.04 703.556,486.04 "/>
    <polygon style="fill: #0000ff" points="711.056,486.04 701.056,491.04 703.556,486.04 701.056,481.04 "/>
    <polygon style="fill: none; fill-opacity:0; stroke-width: 8; stroke: #0000ff" points="711.056,486.04 701.056,491.04 703.556,486.04 701.056,481.04 "/>
  </g>
  <g>
    <polyline style="fill: none; fill-opacity:0; stroke-width: 8; stroke: #ff0400" points="640,526.04 680,526.04 680,526.04 703.556,526.04 "/>
    <polygon style="fill: #ff0400" points="711.056,526.04 701.056,531.04 703.556,526.04 701.056,521.04 "/>
    <polygon style="fill: none; fill-opacity:0; stroke-width: 8; stroke: #ff0400" points="711.056,526.04 701.056,531.04 703.556,526.04 701.056,521.04 "/>
  </g>
  <text font-size="19.7556" style="fill: #000000;text-anchor:start;font-family:sans-serif;font-style:normal;font-weight:normal" x="640" y="446.04">
    <tspan x="640" y="446.04">Legend</tspan>
  </text>
  <text font-size="12.8" style="fill: #000000;text-anchor:start;font-family:sans-serif;font-style:normal;font-weight:normal" x="640" y="515.04">
    <tspan x="640" y="515.04"></tspan>
  </text>
  <text font-size="16.9333" style="fill: #000000;text-anchor:start;font-family:sans-serif;font-style:normal;font-weight:normal" x="740" y="486.04">
    <tspan x="740" y="486.04">Binary audio data</tspan>
  </text>
  <text font-size="16.9333" style="fill: #000000;text-anchor:start;font-family:sans-serif;font-style:normal;font-weight:normal" x="740" y="526.04">
    <tspan x="740" y="526.04">Textual metadata</tspan>
  </text>
  <text font-size="16.9333" style="fill: #000000;text-anchor:start;font-family:sans-serif;font-style:normal;font-weight:normal" x="740" y="646.04">
    <tspan x="740" y="646.04">Graph images</tspan>
  </text>
  <g>
    <polyline style="fill: none; fill-opacity:0; stroke-width: 8; stroke: #ffa500" points="640,646.04 680,646.04 680,646.04 703.556,646.04 "/>
    <polygon style="fill: #ffa500" points="711.056,646.04 701.056,651.04 703.556,646.04 701.056,641.04 "/>
    <polygon style="fill: none; fill-opacity:0; stroke-width: 8; stroke: #ffa500" points="711.056,646.04 701.056,651.04 703.556,646.04 701.056,641.04 "/>
  </g>
  <text font-size="12.8" style="fill: #000000;text-anchor:start;font-family:sans-serif;font-style:normal;font-weight:normal" x="820" y="595.04">
    <tspan x="820" y="595.04"></tspan>
  </text>
  <text font-size="16.9333" style="fill: #000000;text-anchor:start;font-family:sans-serif;font-style:normal;font-weight:normal" x="740" y="606.04">
    <tspan x="740" y="606.04">Analysis results</tspan>
  </text>
  <g>
    <polyline style="fill: none; fill-opacity:0; stroke-width: 8; stroke: #1af5dd" points="640,606.04 680,606.04 680,606.04 703.556,606.04 "/>
    <polygon style="fill: #1af5dd" points="711.056,606.04 701.056,611.04 703.556,606.04 701.056,601.04 "/>
    <polygon style="fill: none; fill-opacity:0; stroke-width: 8; stroke: #1af5dd" points="711.056,606.04 701.056,611.04 703.556,606.04 701.056,601.04 "/>
  </g>
  <text font-size="12.8" style="fill: #000000;text-anchor:start;font-family:sans-serif;font-style:normal;font-weight:normal" x="820" y="615.04">
    <tspan x="820" y="615.04"></tspan>
  </text>
  <text font-size="12.8" style="fill: #000000;text-anchor:start;font-family:sans-serif;font-style:normal;font-weight:normal" x="800" y="646.04">
    <tspan x="800" y="646.04"></tspan>
  </text>
  <g>
    <polyline style="fill: none; fill-opacity:0; stroke-width: 8; stroke: #a020f0" points="640,566.04 680,566.04 680,566.04 703.556,566.04 "/>
    <polygon style="fill: #a020f0" points="711.056,566.04 701.056,571.04 703.556,566.04 701.056,561.04 "/>
    <polygon style="fill: none; fill-opacity:0; stroke-width: 8; stroke: #a020f0" points="711.056,566.04 701.056,571.04 703.556,566.04 701.056,561.04 "/>
  </g>
  <text font-size="16.9333" style="fill: #000000;text-anchor:start;font-family:sans-serif;font-style:normal;font-weight:normal" x="740" y="566.04">
    <tspan x="740" y="566.04">Audio data + embedded metadata</tspan>
  </text>
  <g>
    <polyline style="fill: none; fill-opacity:0; stroke-width: 10; stroke: #a020f0" points="380,326.04 380,326.04 380,386.04 441.32,386.04 "/>
    <polygon style="fill: #a020f0" points="448.82,386.04 438.82,391.04 441.32,386.04 438.82,381.04 "/>
    <polygon style="fill: none; fill-opacity:0; stroke-width: 10; stroke: #a020f0" points="448.82,386.04 438.82,391.04 441.32,386.04 438.82,381.04 "/>
  </g>
  <text font-size="22.5778" style="fill: #000000;text-anchor:start;font-family:sans-serif;font-style:normal;font-weight:700" x="740" y="66.04">
    <tspan x="740" y="66.04">Media</tspan>
  </text>
  <g>
    <polyline style="fill: none; fill-opacity:0; stroke-width: 8; stroke: #0000ff" points="700,116.04 609.4,116.04 609.4,116.04 553.516,116.04 "/>
    <polygon style="fill: #0000ff" points="546.016,116.04 556.016,111.04 553.516,116.04 556.016,121.04 "/>
    <polygon style="fill: none; fill-opacity:0; stroke-width: 8; stroke: #0000ff" points="546.016,116.04 556.016,111.04 553.516,116.04 556.016,121.04 "/>
  </g>
  <g>
    <polyline style="fill: none; fill-opacity:0; stroke-width: 8; stroke: #ff0400" points="700,180.734 660,180.734 660,180 556.444,180 "/>
    <polygon style="fill: #ff0400" points="548.944,180 558.944,175 556.444,180 558.944,185 "/>
    <polygon style="fill: none; fill-opacity:0; stroke-width: 8; stroke: #ff0400" points="548.944,180 558.944,175 556.444,180 558.944,185 "/>
  </g>
  <g>
    <rect style="fill: #ff0400" x="688.792" y="276.376" width="200" height="69.3889"/>
    <path style="fill: #ff0400" d="M 688.792,276.376 A 10,10 0 0 0 678.792,286.376 L 688.792,286.376 z"/>
    <path style="fill: #ff0400" d="M 898.792,286.376 A 10,10 0 0 0 888.792,276.376 L 888.792,286.376 z"/>
    <rect style="fill: #ff0400" x="678.792" y="286.376" width="220" height="49.3889"/>
    <path style="fill: #ff0400" d="M 678.792,335.765 A 10,10 0 0 0 688.792,345.765 L 688.792,335.765 z"/>
    <path style="fill: #ff0400" d="M 888.792,345.765 A 10,10 0 0 0 898.792,335.765 L 888.792,335.765 z"/>
    <line style="fill: none; fill-opacity:0; stroke-width: 2.35099e-37; stroke: #000000" x1="688.792" y1="276.376" x2="888.792" y2="276.376"/>
    <line style="fill: none; fill-opacity:0; stroke-width: 2.35099e-37; stroke: #000000" x1="688.792" y1="345.765" x2="888.792" y2="345.765"/>
    <path style="fill: none; fill-opacity:0; stroke-width: 2.35099e-37; stroke: #000000" d="M 688.792,276.376 A 10,10 0 0 0 678.792,286.376"/>
    <path style="fill: none; fill-opacity:0; stroke-width: 2.35099e-37; stroke: #000000" d="M 898.792,286.376 A 10,10 0 0 0 888.792,276.376"/>
    <line style="fill: none; fill-opacity:0; stroke-width: 2.35099e-37; stroke: #000000" x1="678.792" y1="286.376" x2="678.792" y2="335.765"/>
    <line style="fill: none; fill-opacity:0; stroke-width: 2.35099e-37; stroke: #000000" x1="898.792" y1="286.376" x2="898.792" y2="335.765"/>
    <path style="fill: none; fill-opacity:0; stroke-width: 2.35099e-37; stroke: #000000" d="M 678.792,335.765 A 10,10 0 0 0 688.792,345.765"/>
    <path style="fill: none; fill-opacity:0; stroke-width: 2.35099e-37; stroke: #000000" d="M 888.792,345.765 A 10,10 0 0 0 898.792,335.765"/>
    <text font-size="19.7556" style="fill: #ffffff;text-anchor:middle;font-family:sans-serif;font-style:normal;font-weight:normal" x="788.792" y="304.726">
      <tspan x="788.792" y="304.726">Alternate Metadata</tspan>
      <tspan x="788.792" y="329.42">(Dublin Core)</tspan>
    </text>
  </g>
  <g>
    <polyline style="fill: none; fill-opacity:0; stroke-width: 8; stroke: #ff0400" points="678.787,311.07 640,311.07 640,311.04 556.444,311.04 "/>
    <polygon style="fill: #ff0400" points="548.944,311.04 558.944,306.04 556.444,311.04 558.944,316.04 "/>
    <polygon style="fill: none; fill-opacity:0; stroke-width: 8; stroke: #ff0400" points="548.944,311.04 558.944,306.04 556.444,311.04 558.944,316.04 "/>
  </g>
  <g>
    <polyline style="fill: none; fill-opacity:0; stroke-width: 10; stroke: #1af5dd" points="185.9,296.04 185.18,296.04 185.18,296.04 213.22,296.04 "/>
    <polygon style="fill: #1af5dd" points="216.37,296.04 212.17,298.14 213.22,296.04 212.17,293.94 "/>
    <polygon style="fill: none; fill-opacity:0; stroke-width: 10; stroke: #1af5dd" points="216.37,296.04 212.17,298.14 213.22,296.04 212.17,293.94 "/>
  </g>
  <g>
    <rect style="fill: #c3d9ff" x="237.55" y="266.04" width="80.8" height="60"/>
    <path style="fill: #c3d9ff" d="M 237.55,266.04 A 10,10 0 0 0 227.55,276.04 L 237.55,276.04 z"/>
    <path style="fill: #c3d9ff" d="M 328.35,276.04 A 10,10 0 0 0 318.35,266.04 L 318.35,276.04 z"/>
    <rect style="fill: #c3d9ff" x="227.55" y="276.04" width="100.8" height="40"/>
    <path style="fill: #c3d9ff" d="M 227.55,316.04 A 10,10 0 0 0 237.55,326.04 L 237.55,316.04 z"/>
    <path style="fill: #c3d9ff" d="M 318.35,326.04 A 10,10 0 0 0 328.35,316.04 L 318.35,316.04 z"/>
    <line style="fill: none; fill-opacity:0; stroke-width: 2.35099e-37; stroke: #000000" x1="237.55" y1="266.04" x2="318.35" y2="266.04"/>
    <line style="fill: none; fill-opacity:0; stroke-width: 2.35099e-37; stroke: #000000" x1="237.55" y1="326.04" x2="318.35" y2="326.04"/>
    <path style="fill: none; fill-opacity:0; stroke-width: 2.35099e-37; stroke: #000000" d="M 237.55,266.04 A 10,10 0 0 0 227.55,276.04"/>
    <path style="fill: none; fill-opacity:0; stroke-width: 2.35099e-37; stroke: #000000" d="M 328.35,276.04 A 10,10 0 0 0 318.35,266.04"/>
    <line style="fill: none; fill-opacity:0; stroke-width: 2.35099e-37; stroke: #000000" x1="227.55" y1="276.04" x2="227.55" y2="316.04"/>
    <line style="fill: none; fill-opacity:0; stroke-width: 2.35099e-37; stroke: #000000" x1="328.35" y1="276.04" x2="328.35" y2="316.04"/>
    <path style="fill: none; fill-opacity:0; stroke-width: 2.35099e-37; stroke: #000000" d="M 227.55,316.04 A 10,10 0 0 0 237.55,326.04"/>
    <path style="fill: none; fill-opacity:0; stroke-width: 2.35099e-37; stroke: #000000" d="M 318.35,326.04 A 10,10 0 0 0 328.35,316.04"/>
    <text font-size="19.7556" style="fill: #000000;text-anchor:middle;font-family:sans-serif;font-style:normal;font-weight:normal" x="277.95" y="302.043">
      <tspan x="277.95" y="302.043">Grapher</tspan>
    </text>
  </g>
  <g>
    <rect style="fill: #c3d9ff" x="90" y="266.04" width="85.9" height="60"/>
    <path style="fill: #c3d9ff" d="M 90,266.04 A 10,10 0 0 0 80,276.04 L 90,276.04 z"/>
    <path style="fill: #c3d9ff" d="M 185.9,276.04 A 10,10 0 0 0 175.9,266.04 L 175.9,276.04 z"/>
    <rect style="fill: #c3d9ff" x="80" y="276.04" width="105.9" height="40"/>
    <path style="fill: #c3d9ff" d="M 80,316.04 A 10,10 0 0 0 90,326.04 L 90,316.04 z"/>
    <path style="fill: #c3d9ff" d="M 175.9,326.04 A 10,10 0 0 0 185.9,316.04 L 175.9,316.04 z"/>
    <line style="fill: none; fill-opacity:0; stroke-width: 2.35099e-37; stroke: #000000" x1="90" y1="266.04" x2="175.9" y2="266.04"/>
    <line style="fill: none; fill-opacity:0; stroke-width: 2.35099e-37; stroke: #000000" x1="90" y1="326.04" x2="175.9" y2="326.04"/>
    <path style="fill: none; fill-opacity:0; stroke-width: 2.35099e-37; stroke: #000000" d="M 90,266.04 A 10,10 0 0 0 80,276.04"/>
    <path style="fill: none; fill-opacity:0; stroke-width: 2.35099e-37; stroke: #000000" d="M 185.9,276.04 A 10,10 0 0 0 175.9,266.04"/>
    <line style="fill: none; fill-opacity:0; stroke-width: 2.35099e-37; stroke: #000000" x1="80" y1="276.04" x2="80" y2="316.04"/>
    <line style="fill: none; fill-opacity:0; stroke-width: 2.35099e-37; stroke: #000000" x1="185.9" y1="276.04" x2="185.9" y2="316.04"/>
    <path style="fill: none; fill-opacity:0; stroke-width: 2.35099e-37; stroke: #000000" d="M 80,316.04 A 10,10 0 0 0 90,326.04"/>
    <path style="fill: none; fill-opacity:0; stroke-width: 2.35099e-37; stroke: #000000" d="M 175.9,326.04 A 10,10 0 0 0 185.9,316.04"/>
    <text font-size="19.7556" style="fill: #000000;text-anchor:middle;font-family:sans-serif;font-style:normal;font-weight:normal" x="132.95" y="302.043">
      <tspan x="132.95" y="302.043">Analyzer</tspan>
    </text>
  </g>
</svg>
