<svg width="53cm" height="39cm" viewBox="38 18 1051 762" xmlns="http://www.w3.org/2000/svg"><path fill="#fff" d="M610 20h467.573v440H610zM610 20a10 10 0 0 0-10 10h10z"/><path d="M1087.57 30a10 10 0 0 0-10-10v10zM600 30h487.573v420H600zM600 450a10 10 0 0 0 10 10v-10zM1077.57 460a10 10 0 0 0 10-10h-10z" fill="#fff"/><path fill="none" stroke-width="3" stroke="#000" d="M610 20h467.57M610 460h467.57M610 20a10 10 0 0 0-10 10M1087.57 30a10 10 0 0 0-10-10M600 30v420M1087.57 30v420M600 450a10 10 0 0 0 10 10M1077.57 460a10 10 0 0 0 10-10"/><text font-size="12.8" x="843.786" y="243.9" fill="#0f0" text-anchor="middle" font-family="sans-serif" font-weight="400"></text><path fill="#fff" d="M650 240h380v180H650zM650 240a10 10 0 0 0-10 10h10zM1040 250a10 10 0 0 0-10-10v10z"/><path fill="#fff" d="M640 250h400v160H640zM640 410a10 10 0 0 0 10 10v-10zM1030 420a10 10 0 0 0 10-10h-10z"/><path fill="none" stroke-width="2" stroke="#000" d="M650 240h380M650 420h380M650 240a10 10 0 0 0-10 10M1040 250a10 10 0 0 0-10-10M640 250v160M1040 250v160M640 410a10 10 0 0 0 10 10M1030 420a10 10 0 0 0 10-10"/><text font-size="12.8" x="840" y="333.9" fill="#0f0" text-anchor="middle" font-family="sans-serif" font-weight="400"></text><path fill="#fff" d="M50 20h520v500H50zM50 20a10 10 0 0 0-10 10h10zM580 30a10 10 0 0 0-10-10v10z"/><path fill="#fff" d="M40 30h540v480H40zM40 510a10 10 0 0 0 10 10v-10zM570 520a10 10 0 0 0 10-10h-10z"/><path fill="none" stroke-width="3" stroke="#000" d="M50 20h520M50 520h520M50 20a10 10 0 0 0-10 10M580 30a10 10 0 0 0-10-10M40 30v480M580 30v480M40 510a10 10 0 0 0 10 10M570 520a10 10 0 0 0 10-10"/><text font-size="12.8" x="310" y="273.9" fill="#0f0" text-anchor="middle" font-family="sans-serif" font-weight="400"></text><g><path fill="none" stroke-width="8" stroke="#ff0400" d="M660 369.882H420V370H196.444"/><path fill="#ff0400" d="M188.944 370l10-5-2.5 5 2.5 5z"/><path fill="none" stroke-width="8" stroke="#ff0400" d="M188.944 370l10-5-2.5 5 2.5 5z"/></g><g><path fill="#fff" d="M650 80h380v140H650zM650 80a10 10 0 0 0-10 10h10zM1040 90a10 10 0 0 0-10-10v10z"/><path fill="#fff" d="M640 90h400v120H640zM640 210a10 10 0 0 0 10 10v-10zM1030 220a10 10 0 0 0 10-10h-10z"/><path fill="none" stroke-width="2" stroke="#000" d="M650 80h380M650 220h380M650 80a10 10 0 0 0-10 10M1040 90a10 10 0 0 0-10-10M640 90v120M1040 90v120M640 210a10 10 0 0 0 10 10M1030 220a10 10 0 0 0 10-10"/><text font-size="12.8" x="840" y="153.9" fill="#0f0" text-anchor="middle" font-family="sans-serif" font-weight="400"></text></g><g><path fill="none" stroke-width="10" stroke="orange" d="M279.4 320h.6v221.32"/><path fill="orange" d="M280 548.82l-5-10 5 2.5 5-2.5z"/><path fill="none" stroke-width="10" stroke="orange" d="M280 548.82l-5-10 5 2.5 5-2.5z"/></g><text font-size="12.8" x="400" y="226.04" font-family="sans-serif" font-weight="400"></text><text font-size="22.578" x="203.776" y="60" font-family="sans-serif" font-weight="700"><tspan x="203.776" y="60">TimeSide Engine</tspan></text><g><path fill="#ff0400" d="M870 140h138.05v63.105H870zM870 140a10 10 0 0 0-10 10h10zM1018.05 150a10 10 0 0 0-10-10v10z"/><path fill="#ff0400" d="M860 150h158.05v43.105H860zM860 193.105a10 10 0 0 0 10 10v-10zM1008.05 203.105a10 10 0 0 0 10-10h-10z"/><path fill="none" d="M870 140h138.05M870 203.105h138.05M870 140a10 10 0 0 0-10 10M1018.05 150a10 10 0 0 0-10-10M860 150v43.105M1018.05 150v43.105M860 193.105a10 10 0 0 0 10 10M1008.05 203.105a10 10 0 0 0 10-10"/><text font-size="19.756" x="939.025" y="177.555" fill="#fff" text-anchor="middle" font-family="sans-serif" font-weight="400"><tspan x="939.025" y="177.555">Metadata</tspan></text></g><text font-size="12.8" x="298.536" y="150" font-family="sans-serif" font-weight="400"></text><text font-size="22.578" x="800" y="120" font-family="sans-serif" font-weight="700"><tspan x="800" y="120">Media</tspan></text><g><path fill="none" stroke-width="10" stroke="#1af5dd" d="M183.9 290h-83.363H205.67"/><path fill="#1af5dd" d="M208.82 290l-4.2 2.1 1.05-2.1-1.05-2.1z"/><path fill="none" stroke-width="10" stroke="#1af5dd" d="M208.82 290l-4.2 2.1 1.05-2.1-1.05-2.1z"/></g><g><path fill="#c3d9ff" d="M230 260h98.8v60H230zM230 260a10 10 0 0 0-10 10h10zM338.8 270a10 10 0 0 0-10-10v10z"/><path fill="#c3d9ff" d="M220 270h118.8v40H220zM220 310a10 10 0 0 0 10 10v-10zM328.8 320a10 10 0 0 0 10-10h-10z"/><path fill="none" d="M230 260h98.8M230 320h98.8M230 260a10 10 0 0 0-10 10M338.8 270a10 10 0 0 0-10-10M220 270v40M338.8 270v40M220 310a10 10 0 0 0 10 10M328.8 320a10 10 0 0 0 10-10"/><text font-size="19.756" x="279.4" y="296.003" text-anchor="middle" font-family="sans-serif" font-weight="400"><tspan x="279.4" y="296.003">Grapher</tspan></text></g><text font-size="22.578" x="697.812" y="60" font-family="sans-serif" font-weight="700"><tspan x="697.812" y="60">Web Server (Telemeta)</tspan></text><g><path fill="#c3d9ff" d="M70 260h103.9v60H70zM70 260a10 10 0 0 0-10 10h10zM183.9 270a10 10 0 0 0-10-10v10z"/><path fill="#c3d9ff" d="M60 270h123.9v40H60zM60 310a10 10 0 0 0 10 10v-10zM173.9 320a10 10 0 0 0 10-10h-10z"/><path fill="none" d="M70 260h103.9M70 320h103.9M70 260a10 10 0 0 0-10 10M183.9 270a10 10 0 0 0-10-10M60 270v40M183.9 270v40M60 310a10 10 0 0 0 10 10M173.9 320a10 10 0 0 0 10-10"/><text font-size="19.756" x="121.95" y="296.003" text-anchor="middle" font-family="sans-serif" font-weight="400"><tspan x="121.95" y="296.003">Analyzer</tspan></text></g><g><path fill="#c3d9ff" d="M370 260h160v60H370zM370 260a10 10 0 0 0-10 10h10zM540 270a10 10 0 0 0-10-10v10z"/><path fill="#c3d9ff" d="M360 270h180v40H360zM360 310a10 10 0 0 0 10 10v-10zM530 320a10 10 0 0 0 10-10h-10z"/><path fill="none" d="M370 260h160M370 320h160M370 260a10 10 0 0 0-10 10M540 270a10 10 0 0 0-10-10M360 270v40M540 270v40M360 310a10 10 0 0 0 10 10M530 320a10 10 0 0 0 10-10"/><text font-size="19.756" x="450" y="296.003" text-anchor="middle" font-family="sans-serif" font-weight="400"><tspan x="450" y="296.003">Encoder</tspan></text></g><g><path fill="#c3d9ff" d="M70 100h457.071v100H70zM70 100a10 10 0 0 0-10 10h10zM537.071 110a10 10 0 0 0-10-10v10z"/><path fill="#c3d9ff" d="M60 110h477.071v80H60zM60 190a10 10 0 0 0 10 10v-10zM527.071 200a10 10 0 0 0 10-10h-10z"/><path fill="none" d="M70 100h457.071M70 200h457.071M70 100a10 10 0 0 0-10 10M537.071 110a10 10 0 0 0-10-10M60 110v80M537.071 110v80M60 190a10 10 0 0 0 10 10M527.071 200a10 10 0 0 0 10-10"/><text font-size="19.756" x="298.536" y="156.003" text-anchor="middle" font-family="sans-serif" font-weight="400"><tspan x="298.536" y="156.003">Decoder</tspan></text></g><text font-size="22.578" x="960" y="320" text-anchor="middle" font-family="sans-serif" font-weight="700"><tspan x="960" y="320">Expert</tspan> <tspan x="960" y="348.222">Metadata</tspan></text><g><path fill="#ff0400" d="M670 340h197.945v59.766H670zM670 340a10 10 0 0 0-10 10h10zM877.945 350a10 10 0 0 0-10-10v10z"/><path fill="#ff0400" d="M660 350h217.945v39.766H660zM660 389.766a10 10 0 0 0 10 10v-10zM867.945 399.766a10 10 0 0 0 10-10h-10z"/><path fill="none" d="M670 340h197.945M670 399.766h197.945M670 340a10 10 0 0 0-10 10M877.945 350a10 10 0 0 0-10-10M660 350v39.766M877.945 350v39.766M660 389.766a10 10 0 0 0 10 10M867.945 399.766a10 10 0 0 0 10-10"/><text font-size="19.756" x="768.972" y="375.886" fill="#fff" text-anchor="middle" font-family="sans-serif" font-weight="400"><tspan x="768.972" y="375.886">Annotations</tspan></text></g><g><path fill="#ff0400" d="M670 260h200.874v62.694H670zM670 260a10 10 0 0 0-10 10h10zM880.874 270a10 10 0 0 0-10-10v10z"/><path fill="#ff0400" d="M660 270h220.874v42.694H660zM660 312.694a10 10 0 0 0 10 10v-10zM870.874 322.694a10 10 0 0 0 10-10h-10z"/><path fill="none" d="M670 260h200.874M670 322.694h200.874M670 260a10 10 0 0 0-10 10M880.874 270a10 10 0 0 0-10-10M660 270v42.694M880.874 270v42.694M660 312.694a10 10 0 0 0 10 10M870.874 322.694a10 10 0 0 0 10-10"/><text font-size="19.756" x="770.437" y="297.35" fill="#fff" text-anchor="middle" font-family="sans-serif" font-weight="400"><tspan x="770.437" y="297.35">Archives Metadata</tspan></text></g><g><path fill="none" stroke-width="10" stroke="#8b6914" d="M580 642.628V640h101.894V478.68"/><path fill="#8b6914" d="M681.894 471.18l5 10-5-2.5-5 2.5z"/><path fill="none" stroke-width="10" stroke="#8b6914" d="M681.894 471.18l5 10-5-2.5-5 2.5z"/></g><g><path fill="#1e90ff" d="M670 140h140v62.694H670zM670 140a10 10 0 0 0-10 10h10zM820 150a10 10 0 0 0-10-10v10z"/><path fill="#1e90ff" d="M660 150h160v42.694H660z"/><path d="M660 192.694a10 10 0 0 0 10 10v-10zM810 202.694a10 10 0 0 0 10-10h-10z" fill="#1e90ff"/><path fill="none" d="M670 140h140M670 202.694h140M670 140a10 10 0 0 0-10 10M820 150a10 10 0 0 0-10-10M660 150v42.694M820 150v42.694M660 192.694a10 10 0 0 0 10 10M810 202.694a10 10 0 0 0 10-10"/><text font-size="19.756" x="740" y="177.35" fill="#fff" text-anchor="middle" font-family="sans-serif" font-weight="400"><tspan x="740" y="177.35">Audio</tspan></text></g><g><path fill="#fff" d="M50 560h520v165.255H50zM50 560a10 10 0 0 0-10 10h10zM580 570a10 10 0 0 0-10-10v10z"/><path fill="#fff" d="M40 570h540v145.255H40zM40 715.255a10 10 0 0 0 10 10v-10zM570 725.255a10 10 0 0 0 10-10h-10z"/><path fill="none" stroke-width="3" stroke="#000" d="M50 560h520M50 725.255h520M50 560a10 10 0 0 0-10 10M580 570a10 10 0 0 0-10-10M40 570v145.255M580 570v145.255M40 715.255a10 10 0 0 0 10 10M570 725.255a10 10 0 0 0 10-10"/><text font-size="12.8" x="310" y="646.527" fill="#0f0" text-anchor="middle" font-family="sans-serif" font-weight="400"></text></g><text font-size="22.578" x="240" y="600" font-family="sans-serif" font-weight="700"><tspan x="240" y="600">TimeSide UI</tspan></text><g><path fill="#ff0" d="M90 620h440v78.969H90zM90 620a10 10 0 0 0-10 10h10zM540 630a10 10 0 0 0-10-10v10z"/><path fill="#ff0" d="M80 630h460v58.969H80zM80 688.969a10 10 0 0 0 10 10v-10zM530 698.969a10 10 0 0 0 10-10h-10z"/><path fill="none" d="M90 620h440M90 698.969h440M90 620a10 10 0 0 0-10 10M540 630a10 10 0 0 0-10-10M80 630v58.969M540 630v58.969M80 688.969a10 10 0 0 0 10 10M530 698.969a10 10 0 0 0 10-10"/><text font-size="19.756" x="310" y="665.487" text-anchor="middle" font-family="sans-serif" font-weight="400"><tspan x="310" y="665.487">Player (HTML5, CSS, JavaScript)</tspan></text></g><text font-size="12.8" x="310" y="698.968" font-family="sans-serif" font-weight="400"></text><g><path fill="#fff" d="M740 500h337.172v280H740z"/><path fill="none" d="M740 500h337.172v280H740z"/><text font-size="12.8" x="908.586" y="643.9" fill="#0f0" text-anchor="middle" font-family="sans-serif" font-weight="400"></text><path fill="none" stroke-width="8" stroke="#00f" d="M761.172 567h63.556"/><path fill="#00f" d="M832.228 567l-10 5 2.5-5-2.5-5z"/><path fill="none" stroke-width="8" stroke="#00f" d="M832.228 567l-10 5 2.5-5-2.5-5z"/><path fill="none" stroke-width="8" stroke="#ff0400" d="M761.172 607h63.556"/><path fill="#ff0400" d="M832.228 607l-10 5 2.5-5-2.5-5z"/><path fill="none" stroke-width="8" stroke="#ff0400" d="M832.228 607l-10 5 2.5-5-2.5-5z"/><text font-size="19.756" x="761.172" y="527" font-family="sans-serif" font-weight="700"><tspan x="761.172" y="527">Legend</tspan></text><text font-size="12.8" x="761.172" y="596" font-family="sans-serif" font-weight="400"></text><text font-size="16.933" x="861.172" y="567" font-family="sans-serif" font-weight="400"><tspan x="861.172" y="567">Binary audio data</tspan></text><text font-size="16.933" x="861.172" y="607" font-family="sans-serif" font-weight="400"><tspan x="861.172" y="607">Textual metadata</tspan></text><text font-size="16.933" x="861.172" y="727" font-family="sans-serif" font-weight="400"><tspan x="861.172" y="727">Graph images</tspan></text><path fill="none" stroke-width="8" stroke="orange" d="M757.172 720h63.556"/><path fill="orange" d="M828.228 720l-10 5 2.5-5-2.5-5z"/><path fill="none" stroke-width="8" stroke="orange" d="M828.228 720l-10 5 2.5-5-2.5-5z"/><text font-size="12.8" x="941.172" y="676" font-family="sans-serif" font-weight="400"></text><text font-size="16.933" x="861.172" y="687" font-family="sans-serif" font-weight="400"><tspan x="861.172" y="687">Analysis results</tspan></text><g><path fill="none" stroke-width="8" stroke="#1af5dd" d="M761.172 687h63.556"/><path fill="#1af5dd" d="M832.228 687l-10 5 2.5-5-2.5-5z"/><path fill="none" stroke-width="8" stroke="#1af5dd" d="M832.228 687l-10 5 2.5-5-2.5-5z"/></g><text font-size="12.8" x="941.172" y="696" font-family="sans-serif" font-weight="400"></text><text font-size="12.8" x="921.172" y="727" font-family="sans-serif" font-weight="400"></text><g><path fill="none" stroke-width="8" stroke="#a020f0" d="M761.172 647h63.556"/><path fill="#a020f0" d="M832.228 647l-10 5 2.5-5-2.5-5z"/><path fill="none" stroke-width="8" stroke="#a020f0" d="M832.228 647l-10 5 2.5-5-2.5-5z"/></g><text font-size="16.933" x="861.172" y="647" font-family="sans-serif" font-weight="400"><tspan x="861.172" y="647">Audio data &amp; metadata </tspan></text><g><path fill="none" stroke-width="8" stroke="#8b6914" d="M760 760h63.556"/><path fill="#8b6914" d="M831.056 760l-10 5 2.5-5-2.5-5z"/><path fill="none" stroke-width="8" stroke="#8b6914" d="M831.056 760l-10 5 2.5-5-2.5-5z"/></g><text font-size="16.933" x="857.172" y="764.972" font-family="sans-serif" font-weight="400"><tspan x="857.172" y="764.972">HTTP Requests</tspan></text></g><g><path fill="none" stroke-width="10" stroke="red" d="M660 290.276H555.752"/><path fill="red" d="M548.252 290.276l10-5-2.5 5 2.5 5z"/><path fill="none" stroke-width="10" stroke="red" d="M548.252 290.276l10-5-2.5 5 2.5 5z"/></g><g><path fill="none" stroke-width="10" stroke="#00f" d="M121 200v41.32"/><path fill="#00f" d="M121 248.82l-5-10 5 2.5 5-2.5z"/><path fill="none" stroke-width="10" stroke="#00f" d="M121 248.82l-5-10 5 2.5 5-2.5z"/></g><g><path fill="none" stroke-width="10" stroke="#00f" d="M279.028 200v41.32"/><path fill="#00f" d="M279.028 248.82l-5-10 5 2.5 5-2.5z"/><path fill="none" stroke-width="10" stroke="#00f" d="M279.028 248.82l-5-10 5 2.5 5-2.5z"/></g><g><path fill="none" stroke-width="10" stroke="#a020f0" d="M453.514 200v41.32"/><path fill="#a020f0" d="M453.514 248.82l-5-10 5 2.5 5-2.5z"/><path fill="none" stroke-width="10" stroke="#a020f0" d="M453.514 248.82l-5-10 5 2.5 5-2.5z"/></g><g><path fill="none" stroke-width="10" stroke="#a020f0" d="M453.082 320v221.32"/><path fill="#a020f0" d="M453.082 548.82l-5-10 5 2.5 5-2.5z"/><path fill="none" stroke-width="10" stroke="#a020f0" d="M453.082 548.82l-5-10 5 2.5 5-2.5z"/></g><g><path fill="none" stroke-width="10" stroke="#a020f0" d="M640 150h-84.248"/><path fill="#a020f0" d="M548.252 150l10-5-2.5 5 2.5 5z"/><path fill="none" stroke-width="10" stroke="#a020f0" d="M548.252 150l10-5-2.5 5 2.5 5z"/></g><g><path fill="none" stroke-width="10" stroke="#1af5dd" d="M120.34 320h.6v221.32"/><path fill="#1af5dd" d="M120.94 548.82l-5-10 5 2.5 5-2.5z"/><path fill="none" stroke-width="10" stroke="#1af5dd" d="M120.94 548.82l-5-10 5 2.5 5-2.5z"/></g><g><path fill="#7dff7d" d="M70 420h460v60H70zM70 420a10 10 0 0 0-10 10h10zM540 430a10 10 0 0 0-10-10v10z"/><path fill="#7dff7d" d="M60 430h480v40H60zM60 470a10 10 0 0 0 10 10v-10zM530 480a10 10 0 0 0 10-10h-10z"/><path fill="none" d="M70 420h460M70 480h460M70 420a10 10 0 0 0-10 10M540 430a10 10 0 0 0-10-10M60 430v40M540 430v40M60 470a10 10 0 0 0 10 10M530 480a10 10 0 0 0 10-10"/><text font-size="19.756" x="300" y="456.003" text-anchor="middle" font-family="sans-serif" font-weight="400"><tspan x="300" y="456.003">Cache</tspan></text></g><g><path fill="#c3d9ff" d="M70 340h100v60H70zM70 340a10 10 0 0 0-10 10h10zM180 350a10 10 0 0 0-10-10v10z"/><path fill="#c3d9ff" d="M60 350h120v40H60zM60 390a10 10 0 0 0 10 10v-10zM170 400a10 10 0 0 0 10-10h-10z"/><path fill="none" d="M70 340h100M70 400h100M70 340a10 10 0 0 0-10 10M180 350a10 10 0 0 0-10-10M60 350v40M180 350v40M60 390a10 10 0 0 0 10 10M170 400a10 10 0 0 0 10-10"/><text font-size="19.756" x="120" y="376.003" text-anchor="middle" font-family="sans-serif" font-weight="400"><tspan x="120" y="376.003">Serializer</tspan></text></g></svg>