<svg xmlns="http://www.w3.org/2000/svg" xmlns:xlink="http://www.w3.org/1999/xlink" width="530pt" height="62pt" viewBox="0 0 530 62"><defs><symbol overflow="visible" id="a"><path d="M9.594-11.297v2.469a11.017 11.017 0 0 0-1.89-.656 7.428 7.428 0 0 0-1.72-.22c-.718 0-1.25.102-1.593.298-.344.199-.516.508-.516.922 0 .312.113.558.344.734.238.18.66.328 1.265.453l1.282.25c1.3.262 2.222.656 2.765 1.188.551.53.828 1.289.828 2.265 0 1.293-.386 2.258-1.156 2.89-.762.626-1.922.938-3.484.938-.742 0-1.485-.074-2.235-.218A14.724 14.724 0 0 1 1.25-.61v-2.547c.75.398 1.469.699 2.156.906.696.2 1.367.297 2.016.297.656 0 1.156-.11 1.5-.328.351-.219.531-.531.531-.938 0-.363-.121-.644-.36-.844-.23-.195-.698-.375-1.405-.53L4.516-4.86c-1.168-.25-2.024-.645-2.563-1.188-.531-.55-.797-1.289-.797-2.219 0-1.156.375-2.046 1.125-2.671.75-.626 1.828-.938 3.235-.938.632 0 1.289.047 1.968.14.676.094 1.38.243 2.11.438z"/></symbol><symbol overflow="visible" id="b"><path d="M4.406-11.234v2.484h2.875v2H4.406v3.703c0 .406.078.684.235.828.164.149.488.219.968.219h1.438v2H4.64C3.535 0 2.754-.227 2.297-.688c-.461-.468-.688-1.253-.688-2.359V-6.75H.22v-2h1.39v-2.484z"/></symbol><symbol overflow="visible" id="c"><path d="M5.516-6.969c-.625 0-1.102.227-1.422.672-.324.45-.485 1.09-.485 1.922 0 .844.16 1.492.485 1.938.32.437.797.656 1.422.656.601 0 1.066-.219 1.39-.657.32-.445.485-1.093.485-1.937 0-.832-.164-1.473-.485-1.922-.324-.445-.789-.672-1.39-.672zm0-2c1.5 0 2.671.406 3.515 1.219.852.813 1.281 1.938 1.281 3.375 0 1.438-.43 2.57-1.28 3.39-.845.813-2.016 1.22-3.516 1.22-1.512 0-2.696-.407-3.547-1.22-.856-.82-1.282-1.953-1.282-3.39 0-1.438.426-2.563 1.282-3.375.851-.813 2.035-1.219 3.547-1.219z"/></symbol><symbol overflow="visible" id="d"><path d="M8.422-8.484v2.28a4.775 4.775 0 0 0-1.156-.577 3.742 3.742 0 0 0-1.188-.188c-.781 0-1.39.23-1.828.688-.43.46-.64 1.093-.64 1.906 0 .824.21 1.465.64 1.922.438.45 1.047.672 1.828.672.438 0 .852-.063 1.25-.188a3.92 3.92 0 0 0 1.094-.578v2.281a7.715 7.715 0 0 1-2.688.5C4.148.234 2.91-.172 2.016-.984 1.129-1.797.687-2.926.687-4.375c0-1.438.442-2.563 1.329-3.375.894-.813 2.132-1.219 3.718-1.219.457 0 .907.043 1.344.125a9.65 9.65 0 0 1 1.344.36z"/></symbol><symbol overflow="visible" id="e"><path d="M1.344-12.156H4.14v6.61L7.359-8.75h3.25L6.344-4.734 10.954 0H7.561L4.142-3.656V0H1.344z"/></symbol><symbol overflow="visible" id="f"><path d="M8.188-8.484v2.125a10.649 10.649 0 0 0-1.75-.563 7.116 7.116 0 0 0-1.563-.187c-.531 0-.93.07-1.188.203-.261.136-.39.34-.39.61 0 .23.098.405.297.53.195.118.547.2 1.047.25l.5.079c1.425.18 2.382.476 2.875.89.5.418.75 1.074.75 1.969 0 .93-.344 1.633-1.032 2.11C7.047 0 6.02.233 4.656.233c-.574 0-1.172-.047-1.797-.14A14.633 14.633 0 0 1 .97-.328v-2.125c.55.273 1.117.476 1.703.61a7.972 7.972 0 0 0 1.797.202c.539 0 .945-.07 1.218-.218.282-.157.422-.38.422-.672 0-.25-.093-.438-.28-.563-.188-.125-.571-.219-1.141-.281l-.485-.063c-1.25-.156-2.125-.44-2.625-.859-.5-.426-.75-1.07-.75-1.937 0-.926.317-1.614.953-2.063.633-.445 1.61-.672 2.922-.672.52 0 1.063.043 1.625.125.57.074 1.192.196 1.86.36z"/></symbol><symbol overflow="visible" id="g"><path d="M10.719-.64A7.913 7.913 0 0 1 8.984 0a7.284 7.284 0 0 1-1.859.234C5.175.234 3.633-.305 2.5-1.39 1.363-2.484.797-3.96.797-5.828c0-1.863.566-3.336 1.703-4.422 1.133-1.082 2.676-1.625 4.625-1.625a7.843 7.843 0 0 1 3.594.86v2.421a6.56 6.56 0 0 0-1.64-.844 5.553 5.553 0 0 0-1.72-.265c-1.074 0-1.918.344-2.53 1.031-.618.688-.923 1.637-.923 2.844 0 1.21.305 2.156.922 2.844.613.687 1.457 1.03 2.531 1.03a5.44 5.44 0 0 0 1.72-.265 6.309 6.309 0 0 0 1.64-.844z"/></symbol><symbol overflow="visible" id="h"><path d="M7.844-6.375a3.47 3.47 0 0 0-1.453-.328c-.72 0-1.278.23-1.672.687-.387.461-.578 1.121-.578 1.985V0H1.344v-8.75H4.14v1.438c.363-.57.773-.989 1.234-1.25.469-.27 1.031-.407 1.688-.407.093 0 .19.008.296.016l.485.047z"/></symbol><symbol overflow="visible" id="i"><path d="M4.14-1.266v4.594H1.345V-8.75H4.14v1.281c.382-.508.812-.883 1.28-1.125.47-.25 1.009-.375 1.626-.375 1.07 0 1.953.434 2.64 1.297.696.856 1.047 1.953 1.047 3.297 0 1.355-.351 2.465-1.046 3.328C9-.19 8.117.234 7.046.234c-.617 0-1.156-.12-1.625-.359-.469-.25-.899-.629-1.281-1.14zM6-6.937c-.594 0-1.055.226-1.375.671-.324.438-.484 1.07-.484 1.891 0 .836.16 1.469.484 1.906.32.438.781.656 1.375.656.602 0 1.063-.218 1.375-.656.313-.437.469-1.07.469-1.906 0-.832-.157-1.469-.469-1.906-.313-.438-.773-.657-1.375-.657z"/></symbol><symbol overflow="visible" id="j"><path d="M1.25-3.406V-8.75h2.813v.875c0 .469-.008 1.063-.016 1.781v1.438c0 .699.016 1.203.047 1.515.039.313.11.54.203.672.113.188.258.336.437.438.188.094.399.14.641.14.582 0 1.04-.222 1.375-.671.332-.446.5-1.07.5-1.876V-8.75h2.797V0H7.25v-1.266c-.418.512-.867.891-1.344 1.141-.468.238-.984.36-1.547.36-1.011 0-1.78-.313-2.312-.938-.531-.625-.797-1.524-.797-2.703z"/></symbol><symbol overflow="visible" id="k"><path d="M1.344-12.156H4.14V0H1.344z"/></symbol><symbol overflow="visible" id="l"><path d="M10.078-4.406v.797H3.547c.062.656.297 1.152.703 1.484.406.324.973.484 1.703.484.594 0 1.195-.082 1.813-.25a9.55 9.55 0 0 0 1.906-.796v2.156c-.668.25-1.336.437-2 .562a9.908 9.908 0 0 1-1.969.203C4.117.234 2.883-.164 2-.969 1.125-1.78.687-2.914.687-4.375c0-1.426.43-2.547 1.297-3.36.864-.82 2.051-1.234 3.563-1.234 1.375 0 2.473.418 3.297 1.25.82.824 1.234 1.93 1.234 3.313zm-2.875-.922c0-.531-.156-.957-.469-1.281-.304-.332-.703-.5-1.203-.5-.543 0-.984.156-1.328.468-.336.305-.543.743-.625 1.313z"/></symbol><symbol overflow="visible" id="m"><path d="M1.344-8.75H4.14V0H1.344zm0-3.406H4.14v2.281H1.344z"/></symbol><symbol overflow="visible" id="n"><path d="M10.14-5.328V0H7.329v-4.078c0-.758-.016-1.281-.047-1.563-.031-.289-.09-.504-.172-.64a1.304 1.304 0 0 0-.453-.422 1.329 1.329 0 0 0-.64-.156c-.586 0-1.043.23-1.375.687-.336.45-.5 1.07-.5 1.86V0H1.344v-8.75H4.14v1.281c.425-.508.875-.883 1.343-1.125a3.348 3.348 0 0 1 1.579-.375c1.007 0 1.773.313 2.296.938.52.617.782 1.515.782 2.703z"/></symbol><symbol overflow="visible" id="o"><path d="M1.469-11.672h3.015V0H1.47z"/></symbol><symbol overflow="visible" id="p"><path d="M9.453-7.297c.352-.539.774-.953 1.266-1.234a3.101 3.101 0 0 1 1.61-.438c1 0 1.757.313 2.28.938.532.617.797 1.515.797 2.703V0h-2.812v-4.563c.008-.07.015-.144.015-.218v-.313c0-.613-.093-1.062-.28-1.343-.18-.282-.47-.422-.876-.422-.531 0-.945.218-1.234.656-.281.437-.43 1.074-.438 1.906V0H6.97v-4.563c0-.968-.086-1.593-.25-1.875-.168-.28-.465-.421-.89-.421-.544 0-.962.226-1.25.671-.294.438-.438 1.063-.438 1.875V0H1.328v-8.75h2.813v1.281c.343-.5.738-.875 1.187-1.125.445-.25.938-.375 1.469-.375.601 0 1.133.149 1.594.438.468.293.82.703 1.062 1.234z"/></symbol><symbol overflow="visible" id="v"><path d="M1.469-11.672h5c1.476 0 2.613.336 3.406 1 .8.656 1.203 1.594 1.203 2.813 0 1.218-.402 2.164-1.203 2.828-.793.656-1.93.984-3.406.984H4.484V0H1.47zm3.015 2.188v3.25h1.657c.582 0 1.03-.141 1.343-.422.32-.282.485-.68.485-1.203 0-.52-.164-.922-.485-1.204-.312-.28-.761-.421-1.343-.421z"/></symbol><symbol overflow="visible" id="w"><path d="M5.266-3.938c-.586 0-1.024.102-1.313.297-.293.2-.437.493-.437.875 0 .356.113.633.343.829.239.199.57.296 1 .296.52 0 .957-.187 1.313-.562.363-.375.547-.848.547-1.422v-.313zM9.546-5v5H6.72v-1.297c-.375.531-.797.922-1.266 1.172-.469.238-1.039.36-1.703.36-.906 0-1.648-.266-2.219-.797C.97-1.095.688-1.782.688-2.626c0-1.031.351-1.785 1.062-2.266.707-.476 1.816-.718 3.328-.718h1.64v-.22c0-.437-.179-.757-.53-.968-.344-.207-.887-.312-1.625-.312a7.14 7.14 0 0 0-1.672.187 5.756 5.756 0 0 0-1.438.531v-2.125a16.196 16.196 0 0 1 1.813-.328 13.416 13.416 0 0 1 1.812-.125c1.57 0 2.707.313 3.406.938.707.625 1.063 1.636 1.063 3.031z"/></symbol><symbol overflow="visible" id="q"><path d="M4.438-7.438v2.829h2.828v1.078H4.437V-.72H3.375V-3.53H.562V-4.61h2.813v-2.829z"/></symbol><symbol overflow="visible" id="r"><path d="M6.75-9.875v.969H5.422c-.418 0-.711.09-.875.265-.168.168-.25.47-.25.907v.625H6.75v.906H4.297V0H3.14v-6.203H1.234v-.906h1.907v-.5c0-.77.175-1.336.53-1.704.352-.374.911-.562 1.673-.562z"/></symbol><symbol overflow="visible" id="s"><path d="M1.625-7.11h2.984v6.204h2.329V0H1.125v-.906h2.328v-5.297H1.625zm1.828-2.765H4.61v1.484H3.453z"/></symbol><symbol overflow="visible" id="t"><path d="M4.063-2.578c0 .523.093.918.28 1.187.196.274.485.407.86.407h1.36V0H5.077c-.7 0-1.242-.223-1.625-.672-.375-.445-.562-1.082-.562-1.906v-6.453H1.016v-.922h3.046z"/></symbol><symbol overflow="visible" id="u"><path d="M7.063-3.844v.563H2v.047c0 .773.203 1.37.61 1.796.406.418.972.625 1.703.625.375 0 .765-.054 1.171-.171a6.306 6.306 0 0 0 1.297-.547V-.36c-.437.18-.867.312-1.281.406-.418.094-.82.14-1.203.14-1.106 0-1.969-.328-2.594-.984-.617-.664-.922-1.582-.922-2.75 0-1.133.301-2.039.906-2.719.614-.675 1.426-1.015 2.438-1.015.906 0 1.617.308 2.14.922.532.617.798 1.453.798 2.515zM5.89-4.188c-.024-.687-.188-1.207-.5-1.562-.305-.363-.743-.547-1.313-.547-.562 0-1.027.188-1.39.563-.368.375-.579.89-.641 1.546z"/></symbol><symbol overflow="visible" id="x"><path d="M3.89-9.125v2.016h2.657v.906H3.89v3.86c0 .523.097.886.296 1.093.208.21.555.313 1.047.313h1.313V0H5.125c-.875 0-1.496-.172-1.86-.516-.355-.351-.53-.96-.53-1.828v-3.86H.827v-.905h1.906v-2.016z"/></symbol><symbol overflow="visible" id="y"><path d="M4.297-6.39c.133-.301.312-.524.531-.673.227-.144.5-.218.813-.218.57 0 .972.226 1.203.672.238.437.36 1.265.36 2.484V0H6.14v-4.063c0-1.007-.059-1.632-.172-1.875-.117-.238-.32-.359-.61-.359-.343 0-.578.133-.703.39-.125.262-.187.876-.187 1.845V0H3.406v-4.063c0-1.019-.062-1.644-.187-1.875-.117-.238-.328-.359-.64-.359-.313 0-.532.133-.657.39-.117.262-.172.876-.172 1.845V0H.687v-7.11H1.75v.61c.145-.25.32-.441.531-.578.207-.133.442-.203.703-.203.32 0 .586.074.797.218.219.149.39.372.516.672z"/></symbol><symbol overflow="visible" id="z"><path d="M7.188-4.75V0H5.921v-4.75c0-.688-.121-1.191-.36-1.516-.242-.32-.62-.484-1.14-.484-.586 0-1.04.21-1.36.625-.312.418-.468 1.016-.468 1.797V0H1.328v-7.656h1.266v1.14c.219-.437.52-.765.906-.984.383-.227.836-.344 1.36-.344.78 0 1.363.262 1.75.782.382.511.577 1.28.577 2.312z"/></symbol><symbol overflow="visible" id="A"><path d="M1.844-1.156H4V-8.97l-2.313.531v-1.265l2.297-.5H5.36v9.047h2.125V0h-5.64z"/></symbol></defs><path fill="#fff" d="M0 0h530v62H0z"/><path d="M1 5h69.8v28H1z" fill-rule="evenodd" fill="#fff" stroke-width="2" stroke="#000" stroke-miterlimit="10"/><use xlink:href="#a" x="5.977" y="24"/><use xlink:href="#b" x="17.5" y="24"/><use xlink:href="#c" x="25.156" y="24"/><use xlink:href="#d" x="36.152" y="24"/><use xlink:href="#e" x="45.645" y="24"/><use xlink:href="#f" x="56.289" y="24"/><path d="M1 33h69.8v8H1zM1 41h69.8v8H1zM121 5h73v28h-73z" fill-rule="evenodd" fill="#fff" stroke-width="2" stroke="#000" stroke-miterlimit="10"/><use xlink:href="#g" x="126.016" y="24"/><use xlink:href="#c" x="137.754" y="24"/><use xlink:href="#h" x="148.75" y="24"/><use xlink:href="#i" x="156.641" y="24"/><use xlink:href="#j" x="168.086" y="24"/><use xlink:href="#f" x="179.473" y="24"/><path d="M121 33h73v8h-73zM121 41h73v8h-73zM241 5h99.648v28H241z" fill-rule="evenodd" fill="#fff" stroke-width="2" stroke="#000" stroke-miterlimit="10"/><use xlink:href="#g" x="246.039" y="24"/><use xlink:href="#c" x="257.777" y="24"/><use xlink:href="#k" x="268.773" y="24"/><use xlink:href="#k" x="274.262" y="24"/><use xlink:href="#l" x="279.75" y="24"/><use xlink:href="#d" x="290.609" y="24"/><use xlink:href="#b" x="300.102" y="24"/><use xlink:href="#m" x="307.758" y="24"/><use xlink:href="#c" x="313.246" y="24"/><use xlink:href="#n" x="324.242" y="24"/><path d="M241 33h99.648v8H241zM241 41h99.648v8H241zM381 5h51.102v28H381z" fill-rule="evenodd" fill="#fff" stroke-width="2" stroke="#000" stroke-miterlimit="10"/><use xlink:href="#o" x="385.984" y="24"/><use xlink:href="#b" x="391.941" y="24"/><use xlink:href="#l" x="399.598" y="24"/><use xlink:href="#p" x="410.457" y="24"/><path d="M381 33h51.102v20H381z" fill-rule="evenodd" fill="#fff" stroke-width="2" stroke="#000" stroke-miterlimit="10"/><use xlink:href="#q" x="384" y="47"/><use xlink:href="#r" x="391.832" y="47"/><use xlink:href="#s" x="399.664" y="47"/><use xlink:href="#t" x="407.496" y="47"/><use xlink:href="#u" x="415.328" y="47"/><path d="M381 53h51.102v8H381zM481 5h48.5v28H481z" fill-rule="evenodd" fill="#fff" stroke-width="2" stroke="#000" stroke-miterlimit="10"/><g><use xlink:href="#v" x="486.422" y="24"/><use xlink:href="#w" x="497.73" y="24"/><use xlink:href="#h" x="508.531" y="24"/><use xlink:href="#b" x="516.422" y="24"/></g><path d="M481 33h48.5v20H481z" fill-rule="evenodd" fill="#fff" stroke-width="2" stroke="#000" stroke-miterlimit="10"/><g><use xlink:href="#q" x="484" y="47"/><use xlink:href="#x" x="491.832" y="47"/><use xlink:href="#s" x="499.664" y="47"/><use xlink:href="#y" x="507.496" y="47"/><use xlink:href="#u" x="515.328" y="47"/></g><path d="M481 53h48.5v8H481z" fill-rule="evenodd" fill="#fff" stroke-width="2" stroke="#000" stroke-miterlimit="10"/><path d="M194 19h40" fill="none" stroke-width="2" stroke="#000" stroke-miterlimit="10"/><path d="M234 22l6-3-6-3z" fill-rule="evenodd" stroke-width="2" stroke="#000" stroke-miterlimit="10"/><g><use xlink:href="#z" x="199.5" y="13.5"/></g><g><use xlink:href="#z" x="227.063" y="13.5"/></g><path d="M381 19h-33.352" fill="none" stroke-width="2" stroke="#000" stroke-miterlimit="10"/><path d="M347.648 16l-6 3 6 3z" fill-rule="evenodd" stroke-width="2" stroke="#000" stroke-miterlimit="10"/><g><use xlink:href="#z" x="367.063" y="13.5"/></g><g><use xlink:href="#A" x="346.148" y="13.5"/></g><path d="M481 19h-41.898" fill="none" stroke-width="2" stroke="#000" stroke-miterlimit="10"/><path d="M439.102 16l-6 3 6 3z" fill-rule="evenodd" stroke-width="2" stroke="#000" stroke-miterlimit="10"/><g><use xlink:href="#z" x="467.063" y="13.5"/></g><g><use xlink:href="#A" x="437.602" y="13.5"/></g><path d="M70.8 19H118h-4" fill="none" stroke-width="2" stroke="#000" stroke-miterlimit="10"/><path d="M114 22l6-3-6-3z" fill-rule="evenodd" stroke-width="2" stroke="#000" stroke-miterlimit="10"/><g><use xlink:href="#z" x="76.301" y="13.5"/></g><g><use xlink:href="#z" x="107.063" y="13.5"/></g></svg>