<svg xmlns="http://www.w3.org/2000/svg" width="690" height="350" version="1"><path d="M0 0h690v350H0z"/><path fill="navy" d="M10.047 30.047H550V340H10.047z"/><path fill="green" d="M180 59.953h360V330H180z"/><path fill="#00f" d="M20 59.953h150V330H20z"/><path fill="#ff0" d="M190 90h170v110H190z"/><path fill="red" d="M370 89.953h160V320H370z"/><text style="line-height:125%;text-align:start" x="31.809" y="73.928" transform="matrix(.97342 0 0 1.02731 -10 -22.36)" font-size="22" font-weight="400" fill="#fff" font-family="Bitstream Vera Sans" writing-mode="lr"><tspan x="31.809" y="73.928" style="text-align:start;line-height:125%">Collection (Corpus)</tspan></text><text style="line-height:125%" x="39.68" y="103.13" transform="matrix(.97342 0 0 1.02731 -10 -22.36)" font-size="25.155" font-weight="400" fill="#fff" font-family="Bitstream Vera Sans"><tspan x="39.68" y="103.13" style="text-align:start;line-height:125%" font-size="20">Metadata</tspan></text><text style="text-align:start;line-height:125%" x="202.342" y="103.13" transform="matrix(.97342 0 0 1.02731 -10 -22.36)" font-size="20" font-weight="400" fill="#fff" font-family="Bitstream Vera Sans"><tspan x="202.342" y="103.13">Item</tspan></text><text x="316.412" y="45.128" transform="matrix(.97342 0 0 1.02731 -10 -22.36)" font-size="25.155" font-weight="400" fill="#fff" font-family="Bitstream Vera Sans"><tspan x="316.412" y="45.128">Telemeta</tspan></text><text style="text-align:start;line-height:125%" x="214.275" y="132.783" transform="matrix(.97342 0 0 1.02731 -10 -22.36)" font-size="18" font-weight="400" font-family="Bitstream Vera Sans"><tspan x="214.275" y="132.783" style="text-align:start;line-height:125%">Metadata</tspan></text><text style="text-align:start;line-height:125%" x="399.19" y="132.783" transform="matrix(.97342 0 0 1.02731 -10 -22.36)" font-size="18" font-weight="400" fill="#fff" font-family="Bitstream Vera Sans"><tspan x="399.19" y="132.783" style="text-align:start;line-height:125%">Audio</tspan></text><path fill="#f0f" d="M190 210h170v110H190z"/><text style="text-align:start;line-height:125%" x="211.416" y="249.039" transform="matrix(.97342 0 0 1.02731 -10 -22.36)" font-size="18" font-weight="400" fill="#fff" font-family="Bitstream Vera Sans"><tspan x="211.416" y="249.039" style="text-align:start;line-height:125%">Part</tspan></text><path fill="#999" d="M560 30h120v310H560z"/><text style="text-align:start;line-height:125%" x="595.573" y="75.897" transform="matrix(.97342 0 0 1.02731 -10 -22.36)" font-size="20" font-weight="400" fill="#fff" font-family="Bitstream Vera Sans"><tspan x="595.573" y="75.897">Thesaurus</tspan></text></svg>