<svg width="51cm" height="33cm" viewBox="38 25 1002 651" xmlns="http://www.w3.org/2000/svg"><path fill="#fff" d="M670 26.04h240v220H670zM670 26.04a10 10 0 0 0-10 10h10zM920 36.04a10 10 0 0 0-10-10v10z"/><path fill="#fff" d="M660 36.04h260v200H660zM660 236.04a10 10 0 0 0 10 10v-10zM910 246.04a10 10 0 0 0 10-10h-10z"/><path fill="none" stroke-width="2" stroke="#000" d="M670 26.04h240M670 246.04h240M670 26.04a10 10 0 0 0-10 10M920 36.04a10 10 0 0 0-10-10M660 36.04v200M920 36.04v200M660 236.04a10 10 0 0 0 10 10M910 246.04a10 10 0 0 0 10-10"/><text font-size="12.8" x="790" y="139.94" fill="#0f0" text-anchor="middle" font-family="sans-serif" font-weight="400"></text><path fill="#fff" d="M50 486.04h520v180H50zM50 486.04a10 10 0 0 0-10 10h10zM580 496.04a10 10 0 0 0-10-10v10z"/><path fill="#fff" d="M40 496.04h540v160H40zM40 656.04a10 10 0 0 0 10 10v-10zM570 666.04a10 10 0 0 0 10-10h-10z"/><path fill="none" stroke-width="2" stroke="#000" d="M50 486.04h520M50 666.04h520M50 486.04a10 10 0 0 0-10 10M580 496.04a10 10 0 0 0-10-10M40 496.04v160M580 496.04v160M40 656.04a10 10 0 0 0 10 10M570 666.04a10 10 0 0 0 10-10"/><text font-size="12.8" x="310" y="579.94" fill="#0f0" text-anchor="middle" font-family="sans-serif" font-weight="400"></text><path fill="#fff" d="M50 26.04h520v420H50zM50 26.04a10 10 0 0 0-10 10h10zM580 36.04a10 10 0 0 0-10-10v10z"/><path fill="#fff" d="M40 36.04h540v400H40zM40 436.04a10 10 0 0 0 10 10v-10zM570 446.04a10 10 0 0 0 10-10h-10z"/><path fill="none" stroke-width="2" stroke="#000" d="M50 26.04h520M50 446.04h520M50 26.04a10 10 0 0 0-10 10M580 36.04a10 10 0 0 0-10-10M40 36.04v400M580 36.04v400M40 436.04a10 10 0 0 0 10 10M570 446.04a10 10 0 0 0 10-10"/><text font-size="12.8" x="310" y="239.94" fill="#0f0" text-anchor="middle" font-family="sans-serif" font-weight="400"></text><path fill="#1e90ff" d="M710 86.04h160v60H710zM710 86.04a10 10 0 0 0-10 10h10zM880 96.04a10 10 0 0 0-10-10v10z"/><path fill="#1e90ff" d="M700 96.04h180v40H700z"/><path d="M700 136.04a10 10 0 0 0 10 10v-10zM870 146.04a10 10 0 0 0 10-10h-10z" fill="#1e90ff"/><path fill="none" d="M710 86.04h160M710 146.04h160M710 86.04a10 10 0 0 0-10 10M880 96.04a10 10 0 0 0-10-10M700 96.04v40M880 96.04v40M700 136.04a10 10 0 0 0 10 10M870 146.04a10 10 0 0 0 10-10"/><text font-size="19.756" x="790" y="122.043" fill="#fff" text-anchor="middle" font-family="sans-serif" font-weight="400"><tspan x="790" y="122.043">Audio</tspan></text><g><path fill="#c3d9ff" d="M90 86.04h437.071v120H90zM90 86.04a10 10 0 0 0-10 10h10zM537.071 96.04a10 10 0 0 0-10-10v10z"/><path fill="#c3d9ff" d="M80 96.04h457.071v100H80z"/><path d="M80 196.04a10 10 0 0 0 10 10v-10zM527.071 206.04a10 10 0 0 0 10-10h-10z" fill="#c3d9ff"/><path fill="none" d="M90 86.04h437.071M90 206.04h437.071M90 86.04a10 10 0 0 0-10 10M537.071 96.04a10 10 0 0 0-10-10M80 96.04v100M537.071 96.04v100M80 196.04a10 10 0 0 0 10 10M527.071 206.04a10 10 0 0 0 10-10"/><text font-size="19.756" x="308.536" y="152.043" text-anchor="middle" font-family="sans-serif" font-weight="400"><tspan x="308.536" y="152.043">Decoder</tspan></text></g><g><path fill="#c3d9ff" d="M363 266.04h167v60H363zM363 266.04a10 10 0 0 0-10 10h10zM540 276.04a10 10 0 0 0-10-10v10z"/><path fill="#c3d9ff" d="M353 276.04h187v40H353zM353 316.04a10 10 0 0 0 10 10v-10zM530 326.04a10 10 0 0 0 10-10h-10z"/><path fill="none" d="M363 266.04h167M363 326.04h167M363 266.04a10 10 0 0 0-10 10M540 276.04a10 10 0 0 0-10-10M353 276.04v40M540 276.04v40M353 316.04a10 10 0 0 0 10 10M530 326.04a10 10 0 0 0 10-10"/><text font-size="19.756" x="446.5" y="302.043" text-anchor="middle" font-family="sans-serif" font-weight="400"><tspan x="446.5" y="302.043">Encoder</tspan></text></g><g><path fill="none" stroke-width="10" stroke="#1af5dd" d="M132.95 326.04h-4v181.32"/><path fill="#1af5dd" d="M128.95 514.86l-5-10 5 2.5 5-2.5z"/><path fill="none" stroke-width="10" stroke="#1af5dd" d="M128.95 514.86l-5-10 5 2.5 5-2.5z"/></g><g><path fill="none" stroke-width="10" stroke="orange" d="M277.95 326.04h-3v181.32"/><path fill="orange" d="M274.95 514.86l-5-10 5 2.5 5-2.5z"/><path fill="none" stroke-width="10" stroke="orange" d="M274.95 514.86l-5-10 5 2.5 5-2.5z"/></g><g><path fill="none" stroke-width="10" stroke="#00f" d="M128.95 206.04v41.32"/><path fill="#00f" d="M128.95 254.86l-5-10 5 2.5 5-2.5z"/><path fill="none" stroke-width="10" stroke="#00f" d="M128.95 254.86l-5-10 5 2.5 5-2.5z"/></g><g><path fill="#7dff7d" d="M469.3 346.04h61.4v60h-61.4zM469.3 346.04a10 10 0 0 0-10 10h10zM540.7 356.04a10 10 0 0 0-10-10v10z"/><path fill="#7dff7d" d="M459.3 356.04h81.4v40h-81.4zM459.3 396.04a10 10 0 0 0 10 10v-10zM530.7 406.04a10 10 0 0 0 10-10h-10z"/><path fill="none" d="M469.3 346.04h61.4M469.3 406.04h61.4M469.3 346.04a10 10 0 0 0-10 10M540.7 356.04a10 10 0 0 0-10-10M459.3 356.04v40M540.7 356.04v40M459.3 396.04a10 10 0 0 0 10 10M530.7 406.04a10 10 0 0 0 10-10"/><text font-size="19.756" x="500" y="382.043" text-anchor="middle" font-family="sans-serif" font-weight="400"><tspan x="500" y="382.043">Cache</tspan></text></g><text font-size="12.8" x="400" y="226.04" font-family="sans-serif" font-weight="400"></text><text font-size="22.578" x="200" y="66.04" font-family="sans-serif" font-weight="700"><tspan x="200" y="66.04">TimeSide Engine</tspan></text><g><path fill="#ff0400" d="M710 146.04h158.05v69.389H710zM710 146.04a10 10 0 0 0-10 10h10zM878.05 156.04a10 10 0 0 0-10-10v10z"/><path fill="#ff0400" d="M700 156.04h178.05v49.389H700zM700 205.429a10 10 0 0 0 10 10v-10zM868.05 215.429a10 10 0 0 0 10-10h-10z"/><path fill="none" d="M710 146.04h158.05M710 215.429h158.05M710 146.04a10 10 0 0 0-10 10M878.05 156.04a10 10 0 0 0-10-10M700 156.04v49.389M878.05 156.04v49.389M700 205.429a10 10 0 0 0 10 10M868.05 215.429a10 10 0 0 0 10-10"/><text font-size="19.756" x="789.025" y="174.39" fill="#fff" text-anchor="middle" font-family="sans-serif" font-weight="400"><tspan x="789.025" y="174.39">Metadata</tspan> <tspan x="789.025" y="199.084">(ID3, OGG)</tspan></text></g><text font-size="12.8" x="308.536" y="146.04" font-family="sans-serif" font-weight="400"></text><g><path fill="none" stroke-width="10" stroke="red" d="M488 206.04v41.32"/><path fill="red" d="M488 254.86l-5-10 5 2.5 5-2.5z"/><path fill="none" stroke-width="10" stroke="red" d="M488 254.86l-5-10 5 2.5 5-2.5z"/></g><g><path fill="none" stroke-width="10" stroke="#00f" d="M403 206.04l-.172 41.32"/><path fill="#00f" d="M402.797 254.86l-4.959-10.021 4.99 2.521 5.01-2.479z"/><path fill="none" stroke-width="10" stroke="#00f" d="M402.797 254.86l-4.959-10.021 4.99 2.521 5.01-2.479z"/></g><g><path fill="none" stroke-width="10" stroke="#00f" d="M278 207.04l-.034 40.32"/><path fill="#00f" d="M277.959 254.86l-4.991-10.005 4.998 2.505 5.002-2.496z"/><path fill="none" stroke-width="10" stroke="#00f" d="M277.959 254.86l-4.991-10.005 4.998 2.505 5.002-2.496z"/></g><text font-size="22.578" x="240" y="646.04" font-family="sans-serif" font-weight="700"><tspan x="240" y="646.04">TimeSide UI</tspan></text><g><path fill="#ff0" d="M90 526.04h440v80H90zM90 526.04a10 10 0 0 0-10 10h10zM540 536.04a10 10 0 0 0-10-10v10z"/><path fill="#ff0" d="M80 536.04h460v60H80zM80 596.04a10 10 0 0 0 10 10v-10zM530 606.04a10 10 0 0 0 10-10h-10z"/><path fill="none" d="M90 526.04h440M90 606.04h440M90 526.04a10 10 0 0 0-10 10M540 536.04a10 10 0 0 0-10-10M80 536.04v60M540 536.04v60M80 596.04a10 10 0 0 0 10 10M530 606.04a10 10 0 0 0 10-10"/><text font-size="19.756" x="310" y="572.043" text-anchor="middle" font-family="sans-serif" font-weight="400"><tspan x="310" y="572.043">Player (HTML5, CSS, JavaScript)</tspan></text></g><text font-size="12.8" x="310" y="606.04" font-family="sans-serif" font-weight="400"></text><g><path fill="none" stroke-width="10" stroke="#a020f0" d="M500 406.04v101.32"/><path fill="#a020f0" d="M500 514.86l-5-10 5 2.5 5-2.5z"/><path fill="none" stroke-width="10" stroke="#a020f0" d="M500 514.86l-5-10 5 2.5 5-2.5z"/></g><g><path fill="none" stroke-width="10" stroke="#a020f0" d="M380 386.04v121.32"/><path fill="#a020f0" d="M380 514.86l-5-10 5 2.5 5-2.5z"/><path fill="none" stroke-width="10" stroke="#a020f0" d="M380 514.86l-5-10 5 2.5 5-2.5z"/></g><g><path fill="#fff" d="M620 406.04h420v269H620z"/><path fill="none" d="M620 406.04h420v269H620z"/><text font-size="12.8" x="830" y="544.44" fill="#0f0" text-anchor="middle" font-family="sans-serif" font-weight="400"></text></g><g><path fill="none" stroke-width="8" stroke="#00f" d="M640 486.04h63.556"/><path fill="#00f" d="M711.056 486.04l-10 5 2.5-5-2.5-5z"/><path fill="none" stroke-width="8" stroke="#00f" d="M711.056 486.04l-10 5 2.5-5-2.5-5z"/></g><g><path fill="none" stroke-width="8" stroke="#ff0400" d="M640 526.04h63.556"/><path fill="#ff0400" d="M711.056 526.04l-10 5 2.5-5-2.5-5z"/><path fill="none" stroke-width="8" stroke="#ff0400" d="M711.056 526.04l-10 5 2.5-5-2.5-5z"/></g><text font-size="19.756" x="640" y="446.04" font-family="sans-serif" font-weight="400"><tspan x="640" y="446.04">Legend</tspan></text><text font-size="12.8" x="640" y="515.04" font-family="sans-serif" font-weight="400"></text><text font-size="16.933" x="740" y="486.04" font-family="sans-serif" font-weight="400"><tspan x="740" y="486.04">Binary audio data</tspan></text><text font-size="16.933" x="740" y="526.04" font-family="sans-serif" font-weight="400"><tspan x="740" y="526.04">Textual metadata</tspan></text><text font-size="16.933" x="740" y="646.04" font-family="sans-serif" font-weight="400"><tspan x="740" y="646.04">Graph images</tspan></text><g><path fill="none" stroke-width="8" stroke="orange" d="M640 646.04h63.556"/><path fill="orange" d="M711.056 646.04l-10 5 2.5-5-2.5-5z"/><path fill="none" stroke-width="8" stroke="orange" d="M711.056 646.04l-10 5 2.5-5-2.5-5z"/></g><text font-size="12.8" x="820" y="595.04" font-family="sans-serif" font-weight="400"></text><text font-size="16.933" x="740" y="606.04" font-family="sans-serif" font-weight="400"><tspan x="740" y="606.04">Analysis results</tspan></text><g><path fill="none" stroke-width="8" stroke="#1af5dd" d="M640 606.04h63.556"/><path fill="#1af5dd" d="M711.056 606.04l-10 5 2.5-5-2.5-5z"/><path fill="none" stroke-width="8" stroke="#1af5dd" d="M711.056 606.04l-10 5 2.5-5-2.5-5z"/></g><text font-size="12.8" x="820" y="615.04" font-family="sans-serif" font-weight="400"></text><text font-size="12.8" x="800" y="646.04" font-family="sans-serif" font-weight="400"></text><g><path fill="none" stroke-width="8" stroke="#a020f0" d="M640 566.04h63.556"/><path fill="#a020f0" d="M711.056 566.04l-10 5 2.5-5-2.5-5z"/><path fill="none" stroke-width="8" stroke="#a020f0" d="M711.056 566.04l-10 5 2.5-5-2.5-5z"/></g><text font-size="16.933" x="740" y="566.04" font-family="sans-serif" font-weight="400"><tspan x="740" y="566.04">Audio data + embedded metadata</tspan></text><g><path fill="none" stroke-width="10" stroke="#a020f0" d="M380 326.04v60h61.32"/><path fill="#a020f0" d="M448.82 386.04l-10 5 2.5-5-2.5-5z"/><path fill="none" stroke-width="10" stroke="#a020f0" d="M448.82 386.04l-10 5 2.5-5-2.5-5z"/></g><text font-size="22.578" x="740" y="66.04" font-family="sans-serif" font-weight="700"><tspan x="740" y="66.04">Media</tspan></text><g><path fill="none" stroke-width="8" stroke="#00f" d="M700 116.04H553.516"/><path fill="#00f" d="M546.016 116.04l10-5-2.5 5 2.5 5z"/><path fill="none" stroke-width="8" stroke="#00f" d="M546.016 116.04l10-5-2.5 5 2.5 5z"/></g><g><path fill="none" stroke-width="8" stroke="#ff0400" d="M700 180.734h-40V180H556.444"/><path fill="#ff0400" d="M548.944 180l10-5-2.5 5 2.5 5z"/><path fill="none" stroke-width="8" stroke="#ff0400" d="M548.944 180l10-5-2.5 5 2.5 5z"/></g><g><path fill="#ff0400" d="M688.792 276.376h200v69.389h-200zM688.792 276.376a10 10 0 0 0-10 10h10zM898.792 286.376a10 10 0 0 0-10-10v10z"/><path fill="#ff0400" d="M678.792 286.376h220v49.389h-220zM678.792 335.765a10 10 0 0 0 10 10v-10zM888.792 345.765a10 10 0 0 0 10-10h-10z"/><path fill="none" d="M688.792 276.376h200M688.792 345.765h200M688.792 276.376a10 10 0 0 0-10 10M898.792 286.376a10 10 0 0 0-10-10M678.792 286.376v49.389M898.792 286.376v49.389M678.792 335.765a10 10 0 0 0 10 10M888.792 345.765a10 10 0 0 0 10-10"/><text font-size="19.756" x="788.792" y="304.726" fill="#fff" text-anchor="middle" font-family="sans-serif" font-weight="400"><tspan x="788.792" y="304.726">Alternate Metadata</tspan> <tspan x="788.792" y="329.42">(Dublin Core)</tspan></text></g><g><path fill="none" stroke-width="8" stroke="#ff0400" d="M678.787 311.07H640v-.03h-83.556"/><path fill="#ff0400" d="M548.944 311.04l10-5-2.5 5 2.5 5z"/><path fill="none" stroke-width="8" stroke="#ff0400" d="M548.944 311.04l10-5-2.5 5 2.5 5z"/></g><g><path fill="none" stroke-width="10" stroke="#1af5dd" d="M185.9 296.04h-.72 28.04"/><path fill="#1af5dd" d="M216.37 296.04l-4.2 2.1 1.05-2.1-1.05-2.1z"/><path fill="none" stroke-width="10" stroke="#1af5dd" d="M216.37 296.04l-4.2 2.1 1.05-2.1-1.05-2.1z"/></g><g><path fill="#c3d9ff" d="M237.55 266.04h80.8v60h-80.8zM237.55 266.04a10 10 0 0 0-10 10h10zM328.35 276.04a10 10 0 0 0-10-10v10z"/><path fill="#c3d9ff" d="M227.55 276.04h100.8v40h-100.8zM227.55 316.04a10 10 0 0 0 10 10v-10zM318.35 326.04a10 10 0 0 0 10-10h-10z"/><path fill="none" d="M237.55 266.04h80.8M237.55 326.04h80.8M237.55 266.04a10 10 0 0 0-10 10M328.35 276.04a10 10 0 0 0-10-10M227.55 276.04v40M328.35 276.04v40M227.55 316.04a10 10 0 0 0 10 10M318.35 326.04a10 10 0 0 0 10-10"/><text font-size="19.756" x="277.95" y="302.043" text-anchor="middle" font-family="sans-serif" font-weight="400"><tspan x="277.95" y="302.043">Grapher</tspan></text></g><g><path fill="#c3d9ff" d="M90 266.04h85.9v60H90zM90 266.04a10 10 0 0 0-10 10h10zM185.9 276.04a10 10 0 0 0-10-10v10z"/><path fill="#c3d9ff" d="M80 276.04h105.9v40H80zM80 316.04a10 10 0 0 0 10 10v-10zM175.9 326.04a10 10 0 0 0 10-10h-10z"/><path fill="none" d="M90 266.04h85.9M90 326.04h85.9M90 266.04a10 10 0 0 0-10 10M185.9 276.04a10 10 0 0 0-10-10M80 276.04v40M185.9 276.04v40M80 316.04a10 10 0 0 0 10 10M175.9 326.04a10 10 0 0 0 10-10"/><text font-size="19.756" x="132.95" y="302.043" text-anchor="middle" font-family="sans-serif" font-weight="400"><tspan x="132.95" y="302.043">Analyzer</tspan></text></g></svg>