<svg width="30cm" height="26cm" viewBox="338 -200 582 520" xmlns="http://www.w3.org/2000/svg"><path fill="#92b220" d="M350 160h300v60H350zM350 160a10 10 0 0 0-10 10h10zM660 170a10 10 0 0 0-10-10v10z"/><path fill="#92b220" d="M340 170h320v40H340zM340 210a10 10 0 0 0 10 10v-10zM650 220a10 10 0 0 0 10-10h-10z"/><path fill="none" d="M350 160h300M350 220h300M350 160a10 10 0 0 0-10 10M660 170a10 10 0 0 0-10-10M340 170v40M660 170v40M340 210a10 10 0 0 0 10 10M650 220a10 10 0 0 0 10-10"/><text font-size="12.8" x="500" y="193.9" text-anchor="middle" font-family="sans-serif" font-weight="700"><tspan x="500" y="193.9">Django</tspan></text><path fill="#4f628a" d="M350 260h200v60H350zM350 260a10 10 0 0 0-10 10h10zM560 270a10 10 0 0 0-10-10v10z"/><path fill="#4f628a" d="M340 270h220v40H340zM340 310a10 10 0 0 0 10 10v-10zM550 320a10 10 0 0 0 10-10h-10z"/><path fill="none" d="M350 260h200M350 320h200M350 260a10 10 0 0 0-10 10M560 270a10 10 0 0 0-10-10M340 270v40M560 270v40M340 310a10 10 0 0 0 10 10M550 320a10 10 0 0 0 10-10"/><text font-size="12.8" x="450" y="293.9" fill="#fff" text-anchor="middle" font-family="sans-serif" font-weight="400"><tspan x="450" y="293.9">Database</tspan></text><g><path fill="#fff" d="M350-40h480v180H350zM350-40a10 10 0 0 0-10 10h10zM840-30a10 10 0 0 0-10-10v10z"/><path fill="#fff" d="M340-30h500v160H340zM340 130a10 10 0 0 0 10 10v-10zM830 140a10 10 0 0 0 10-10h-10z"/><path fill="none" stroke-width="2" stroke="#000" d="M350-40h480M350 140h480M350-40a10 10 0 0 0-10 10M840-30a10 10 0 0 0-10-10M340-30v160M840-30v160M340 130a10 10 0 0 0 10 10M830 140a10 10 0 0 0 10-10"/><text font-size="12.8" x="590" y="53.9" text-anchor="middle" font-family="sans-serif" font-weight="400"></text></g><g><path fill="#4f628a" d="M590 260h320v60H590zM590 260a10 10 0 0 0-10 10h10zM920 270a10 10 0 0 0-10-10v10z"/><path fill="#4f628a" d="M580 270h340v40H580zM580 310a10 10 0 0 0 10 10v-10zM910 320a10 10 0 0 0 10-10h-10z"/><path fill="none" d="M590 260h320M590 320h320M590 260a10 10 0 0 0-10 10M920 270a10 10 0 0 0-10-10M580 270v40M920 270v40M580 310a10 10 0 0 0 10 10M910 320a10 10 0 0 0 10-10"/><text font-size="12.8" x="750" y="293.9" fill="#fff" text-anchor="middle" font-family="sans-serif" font-weight="400"><tspan x="750" y="293.9">Filesystem</tspan></text></g><g><path fill="#f3ad17" d="M370 80h120v40H370zM370 80a10 10 0 0 0-10 10h10zM500 90a10 10 0 0 0-10-10v10z"/><path fill="#f3ad17" d="M360 90h140v20H360zM360 110a10 10 0 0 0 10 10v-10zM490 120a10 10 0 0 0 10-10h-10z"/><path fill="none" d="M370 80h120M370 120h120M370 80a10 10 0 0 0-10 10M500 90a10 10 0 0 0-10-10M360 90v20M500 90v20M360 110a10 10 0 0 0 10 10M490 120a10 10 0 0 0 10-10"/><text font-size="12.8" x="430" y="103.9" text-anchor="middle" font-family="sans-serif" font-weight="400"><tspan x="430" y="103.9">Models</tspan></text></g><g><path fill="#f3ad17" d="M370 0h440v40H370zM370 0a10 10 0 0 0-10 10h10zM820 10a10 10 0 0 0-10-10v10z"/><path fill="#f3ad17" d="M360 10h460v20H360zM360 30a10 10 0 0 0 10 10V30zM810 40a10 10 0 0 0 10-10h-10z"/><path fill="none" d="M370 0h440M370 40h440M370 0a10 10 0 0 0-10 10M820 10a10 10 0 0 0-10-10M360 10v20M820 10v20M360 30a10 10 0 0 0 10 10M810 40a10 10 0 0 0 10-10"/><text font-size="12.8" x="590" y="23.9" text-anchor="middle" font-family="sans-serif" font-weight="400"><tspan x="590" y="23.9">Views, Controller, Context</tspan></text></g><g><path fill="#f3ad17" d="M550 80h100v40H550zM550 80a10 10 0 0 0-10 10h10zM660 90a10 10 0 0 0-10-10v10z"/><path fill="#f3ad17" d="M540 90h120v20H540zM540 110a10 10 0 0 0 10 10v-10zM650 120a10 10 0 0 0 10-10h-10z"/><path fill="none" d="M550 80h100M550 120h100M550 80a10 10 0 0 0-10 10M660 90a10 10 0 0 0-10-10M540 90v20M660 90v20M540 110a10 10 0 0 0 10 10M650 120a10 10 0 0 0 10-10"/><text font-size="12.8" x="600" y="103.9" text-anchor="middle" font-family="sans-serif" font-weight="400"><tspan x="600" y="103.9">Workflow</tspan></text></g><g><path fill="#e65911" d="M350-100h560v40H350zM350-100a10 10 0 0 0-10 10h10zM920-90a10 10 0 0 0-10-10v10z"/><path fill="#e65911" d="M340-90h580v20H340zM340-70a10 10 0 0 0 10 10v-10zM910-60a10 10 0 0 0 10-10h-10z"/><path fill="none" d="M350-100h560M350-60h560M350-100a10 10 0 0 0-10 10M920-90a10 10 0 0 0-10-10M340-90v20M920-90v20M340-70a10 10 0 0 0 10 10M910-60a10 10 0 0 0 10-10"/><text font-size="12.8" x="630" y="-76.1" fill="#fff" text-anchor="middle" font-family="sans-serif" font-weight="400"><tspan x="630" y="-76.1">Web server</tspan></text></g><g><path fill="#d00" d="M350-200h560v60H350zM350-200a10 10 0 0 0-10 10h10zM920-190a10 10 0 0 0-10-10v10z"/><path fill="#d00" d="M340-190h580v40H340zM340-150a10 10 0 0 0 10 10v-10zM910-140a10 10 0 0 0 10-10h-10z"/><path fill="none" d="M350-200h560M350-140h560M350-200a10 10 0 0 0-10 10M920-190a10 10 0 0 0-10-10M340-190v40M920-190v40M340-150a10 10 0 0 0 10 10M910-140a10 10 0 0 0 10-10"/><text font-size="12.8" x="630" y="-166.1" fill="#fff" text-anchor="middle" font-family="sans-serif" font-weight="400"><tspan x="630" y="-166.1">Browser</tspan></text></g><g><path fill="#92b220" d="M690 160h140v60H690zM690 160a10 10 0 0 0-10 10h10zM840 170a10 10 0 0 0-10-10v10z"/><path fill="#92b220" d="M680 170h160v40H680zM680 210a10 10 0 0 0 10 10v-10zM830 220a10 10 0 0 0 10-10h-10z"/><path fill="none" d="M690 160h140M690 220h140M690 160a10 10 0 0 0-10 10M840 170a10 10 0 0 0-10-10M680 170v40M840 170v40M680 210a10 10 0 0 0 10 10M830 220a10 10 0 0 0 10-10"/><text font-size="12.8" x="760" y="193.9" text-anchor="middle" font-family="sans-serif" font-weight="700"><tspan x="760" y="193.9">TimeSide</tspan></text></g><g><path fill="none" stroke-width="2" stroke="#000" d="M511 100h18"/><path d="M511 95l-10 5 10 5z"/><path fill="none" stroke-width="2" stroke="#000" d="M511 95l-10 5 10 5z"/><path d="M529 105l10-5-10-5z"/><path fill="none" stroke-width="2" stroke="#000" d="M529 105l10-5-10-5z"/></g><g><path fill="none" stroke-width="2" stroke="#000" d="M600 69V51"/><path d="M595 69l5 10 5-10z"/><path fill="none" stroke-width="2" stroke="#000" d="M595 69l5 10 5-10z"/><path d="M605 51l-5-10-5 10z"/><path fill="none" stroke-width="2" stroke="#000" d="M605 51l-5-10-5 10z"/></g><g><path fill="none" stroke-width="2" stroke="#000" d="M429 149v-18"/><path d="M424 149l5 10 5-10z"/><path fill="none" stroke-width="2" stroke="#000" d="M424 149l5 10 5-10z"/><path d="M434 131l-5-10-5 10z"/><path fill="none" stroke-width="2" stroke="#000" d="M434 131l-5-10-5 10z"/></g><g><path fill="none" stroke-width="2" stroke="#000" d="M429.608-11v-38"/><path d="M424.608-11l5 10 5-10z"/><path fill="none" stroke-width="2" stroke="#000" d="M424.608-11l5 10 5-10z"/><path d="M434.608-49l-5-10-5 10z"/><path fill="none" stroke-width="2" stroke="#000" d="M434.608-49l-5-10-5 10z"/></g><g><path fill="none" stroke-width="2" stroke="#000" d="M620 231v9h.312v9"/><path d="M625 231l-5-10-5 10z"/><path fill="none" stroke-width="2" stroke="#000" d="M625 231l-5-10-5 10z"/><path d="M615.312 249l5 10 5-10z"/><path fill="none" stroke-width="2" stroke="#000" d="M615.312 249l5 10 5-10z"/></g><text font-size="12.8" x="590" y="50" font-family="sans-serif" font-weight="400"></text><text font-size="12.8" x="568.078" y="-17.249" font-family="sans-serif" font-weight="700"><tspan x="568.078" y="-17.249">Telemeta</tspan></text><g><path fill="none" stroke-width="2" stroke="#000" d="M430 69V51"/><path d="M425 69l5 10 5-10z"/><path fill="none" stroke-width="2" stroke="#000" d="M425 69l5 10 5-10z"/><path d="M435 51l-5-10-5 10z"/><path fill="none" stroke-width="2" stroke="#000" d="M435 51l-5-10-5 10z"/></g><g><path fill="none" stroke-width="2" stroke="#000" d="M880 249V-49"/><path d="M875 249l5 10 5-10z"/><path fill="none" stroke-width="2" stroke="#000" d="M875 249l5 10 5-10z"/><path d="M885-49l-5-10-5 10z"/><path fill="none" stroke-width="2" stroke="#000" d="M885-49l-5-10-5 10z"/></g><g><path fill="#f3ad17" d="M710 80h99.375v40H710zM710 80a10 10 0 0 0-10 10h10zM819.375 90a10 10 0 0 0-10-10v10z"/><path fill="#f3ad17" d="M700 90h119.375v20H700zM700 110a10 10 0 0 0 10 10v-10zM809.375 120a10 10 0 0 0 10-10h-10z"/><path fill="none" d="M710 80h99.375M710 120h99.375M710 80a10 10 0 0 0-10 10M819.375 90a10 10 0 0 0-10-10M700 90v20M819.375 90v20M700 110a10 10 0 0 0 10 10M809.375 120a10 10 0 0 0 10-10"/><text font-size="12.8" x="759.688" y="103.9" text-anchor="middle" font-family="sans-serif" font-weight="400"><tspan x="759.688" y="103.9">Streaming</tspan></text></g><g><path fill="none" stroke-width="2" stroke="#000" d="M671 100h18"/><path d="M671 95l-10 5 10 5z"/><path fill="none" stroke-width="2" stroke="#000" d="M671 95l-10 5 10 5z"/><path d="M689 105l10-5-10-5z"/><path fill="none" stroke-width="2" stroke="#000" d="M689 105l10-5-10-5z"/></g><g><path fill="none" stroke-width="2" stroke="#000" d="M760 149v-9h-.312v-9"/><path d="M755 149l5 10 5-10z"/><path fill="none" stroke-width="2" stroke="#000" d="M755 149l5 10 5-10z"/><path d="M764.688 131l-5-10-5 10z"/><path fill="none" stroke-width="2" stroke="#000" d="M764.688 131l-5-10-5 10z"/></g><g><path fill="none" stroke-width="2" stroke="#000" d="M760 249v-18"/><path d="M755 249l5 10 5-10z"/><path fill="none" stroke-width="2" stroke="#000" d="M755 249l5 10 5-10z"/><path d="M765 231l-5-10-5 10z"/><path fill="none" stroke-width="2" stroke="#000" d="M765 231l-5-10-5 10z"/></g><g><path fill="none" stroke-width="2" stroke="#000" d="M428.996 249v-9h-.312v-9"/><path d="M423.996 249l5 10 5-10z"/><path fill="none" stroke-width="2" stroke="#000" d="M423.996 249l5 10 5-10z"/><path d="M433.684 231l-5-10-5 10z"/><path fill="none" stroke-width="2" stroke="#000" d="M433.684 231l-5-10-5 10z"/></g><g><path fill="none" stroke-width="2" stroke="#000" d="M759.688 69V51"/><path d="M754.688 69l5 10 5-10z"/><path fill="none" stroke-width="2" stroke="#000" d="M754.688 69l5 10 5-10z"/><path d="M764.688 51l-5-10-5 10z"/><path fill="none" stroke-width="2" stroke="#000" d="M764.688 51l-5-10-5 10z"/></g><g><path fill="none" stroke-width="2" stroke="#000" d="M630-111v-18"/><path d="M625-111l5 10 5-10z"/><path fill="none" stroke-width="2" stroke="#000" d="M625-111l5 10 5-10z"/><path d="M635-129l-5-10-5 10z"/><path fill="none" stroke-width="2" stroke="#000" d="M635-129l-5-10-5 10z"/></g><text font-size="12.8" x="862.752" y="-75.415" fill="#fff" font-family="sans-serif" font-weight="400"><tspan x="862.752" y="-75.415">static</tspan></text><text font-size="12.8" x="403.494" y="-76.332" fill="#fff" font-family="sans-serif" font-weight="400"><tspan x="403.494" y="-76.332">dynamic</tspan></text></svg>