<svg width="6cm" height="11cm" viewBox="1051 -253 112 206" xmlns="http://www.w3.org/2000/svg"><path fill="#fff" d="M1060-86h102v38h-102z"/><path fill="none" stroke="#000" d="M1060-86h102v38h-102z"/><text font-size="12.8" x="1111" y="-63.1" text-anchor="middle" font-family="sans-serif" font-weight="400"><tspan x="1111" y="-63.1">Item</tspan></text><path fill="#fff" d="M1060-150h102v38h-102z"/><path fill="none" stroke="#000" d="M1060-150h102v38h-102z"/><text font-size="12.8" x="1111" y="-127.1" text-anchor="middle" font-family="sans-serif" font-weight="400"><tspan x="1111" y="-127.1">Collection</tspan></text><g><path fill="#fff" d="M1060-223.589h102.2v37H1060z"/><path fill="none" stroke="#000" d="M1060-223.589h102.2v37H1060z"/><text font-size="12.8" x="1111.1" y="-201.189" text-anchor="middle" font-family="sans-serif" font-weight="400"><tspan x="1111.1" y="-201.189">Ressource</tspan></text></g><g><path fill="none" stroke-width="2" stroke="#000" d="M1111-86v-16.264"/><path d="M1111-109.764l5 10-5-2.5-5 2.5z"/><path fill="none" stroke-width="2" stroke="#000" d="M1111-109.764l5 10-5-2.5-5 2.5z"/></g><g><path fill="none" stroke-width="2" stroke="#000" d="M1111.07-176.853l-.04 17.117"/><path d="M1111.09-184.353l4.98 10.014-5-2.514-5 2.486z"/><path fill="none" stroke-width="2" stroke="#000" d="M1111.09-184.353l4.98 10.014-5-2.514-5 2.486z"/><path d="M1111.01-152.236l-4.98-10.014 5 2.514 5-2.486z"/><path fill="none" stroke-width="2" stroke="#000" d="M1111.01-152.236l-4.98-10.014 5 2.514 5-2.486z"/></g><g><path d="M1110.39-232.818a25.69 25.69 0 0 0-49.68 0" fill="none" stroke-width="2" stroke="#000"/><path d="M1059.77-225.813l-6.02-9.422 5.23 1.963 4.71-3.009z"/><path fill="none" stroke-width="2" stroke="#000" d="M1059.77-225.813l-6.02-9.422 5.23 1.963 4.71-3.009z"/><path d="M1111.33-225.813l-3.92-10.468 4.71 3.009 5.23-1.963z"/><path fill="none" stroke-width="2" stroke="#000" d="M1111.33-225.813l-3.92-10.468 4.71 3.009 5.23-1.963z"/></g></svg>