<svg width="6cm" height="13cm" viewBox="1059 -289 104 241" xmlns="http://www.w3.org/2000/svg"><path fill="#fff" d="M1060-86h102v38h-102z"/><path fill="none" stroke="#000" d="M1060-86h102v38h-102z"/><text font-size="12.8" x="1111" y="-63.1" text-anchor="middle" font-family="sans-serif" font-weight="400"><tspan x="1111" y="-63.1">Item</tspan></text><path fill="#fff" d="M1060-150h102v38h-102z"/><path fill="none" stroke="#000" d="M1060-150h102v38h-102z"/><text font-size="12.8" x="1111" y="-127.1" text-anchor="middle" font-family="sans-serif" font-weight="400"><tspan x="1111" y="-127.1">Collection</tspan></text><path fill="#fff" d="M1060-217.254h102.2v37H1060z"/><path fill="none" stroke="#000" d="M1060-217.254h102.2v37H1060z"/><text font-size="12.8" x="1111.1" y="-194.854" text-anchor="middle" font-family="sans-serif" font-weight="400"><tspan x="1111.1" y="-194.854">Corpus</tspan></text><g><path fill="#fff" d="M1060-287.664h102.2v38H1060z"/><path fill="none" stroke="#000" d="M1060-287.664h102.2v38H1060z"/><text font-size="12.8" x="1111.1" y="-264.764" text-anchor="middle" font-family="sans-serif" font-weight="400"><tspan x="1111.1" y="-264.764">Fonds</tspan></text></g><g><path fill="none" stroke-width="2" stroke="#000" d="M1111-86v-16.264"/><path d="M1111-109.764l5 10-5-2.5-5 2.5z"/><path fill="none" stroke-width="2" stroke="#000" d="M1111-109.764l5 10-5-2.5-5 2.5z"/></g><g><path fill="none" stroke-width="2" stroke="#000" d="M1111.07-170.517l-.04 10.781"/><path d="M1111.09-178.017l4.97 10.016-4.99-2.516-5.01 2.483z"/><path fill="none" stroke-width="2" stroke="#000" d="M1111.09-178.017l4.97 10.016-4.99-2.516-5.01 2.483z"/><path d="M1111.01-152.236l-4.97-10.017 4.99 2.517 5.01-2.483z"/><path fill="none" stroke-width="2" stroke="#000" d="M1111.01-152.236l-4.97-10.017 4.99 2.517 5.01-2.483z"/></g><g><path fill="none" stroke-width="2" stroke="#000" d="M1111.1-239.928v12.938"/><path d="M1111.1-247.428l5 10-5-2.5-5 2.5z"/><path fill="none" stroke-width="2" stroke="#000" d="M1111.1-247.428l5 10-5-2.5-5 2.5z"/><path d="M1111.1-219.49l-5-10 5 2.5 5-2.5z"/><path fill="none" stroke-width="2" stroke="#000" d="M1111.1-219.49l-5-10 5 2.5 5-2.5z"/></g></svg>