<svg width="17cm" height="12cm" viewBox="1039 -264 326 237" xmlns="http://www.w3.org/2000/svg"><path fill="#fff" d="M1196-240h168v212h-168z"/><path fill="none" stroke-width="2" stroke="#000" d="M1196-240h168v212h-168z"/><path fill="#fff" d="M1040-240h140v212h-140z"/><path fill="none" stroke-width="2" stroke="#000" d="M1040-240h140v212h-140z"/><path fill="#fff" d="M1060-86h102v38h-102z"/><path fill="none" stroke="#000" d="M1060-86h102v38h-102z"/><text font-size="12.8" x="1111" y="-63.1" text-anchor="middle" font-family="sans-serif" font-weight="400"><tspan x="1111" y="-63.1">Item</tspan></text><path fill="#fff" d="M1060-150h102v38h-102z"/><path fill="none" stroke="#000" d="M1060-150h102v38h-102z"/><text font-size="12.8" x="1111" y="-127.1" text-anchor="middle" font-family="sans-serif" font-weight="400"><tspan x="1111" y="-127.1">Collection</tspan></text><path fill="#fff" d="M1060-208h102.2v37H1060z"/><path fill="none" stroke="#000" d="M1060-208h102.2v37H1060z"/><text font-size="12.8" x="1111.1" y="-185.6" text-anchor="middle" font-family="sans-serif" font-weight="400"><tspan x="1111.1" y="-185.6">Ressource</tspan></text><path fill="none" stroke-width="2" stroke="#000" d="M1111-86v-16.264"/><path d="M1111-109.764l5 10-5-2.5-5 2.5z"/><path fill="none" stroke-width="2" stroke="#000" d="M1111-109.764l5 10-5-2.5-5 2.5z"/><g><path fill="none" stroke-width="2" stroke="#000" d="M1111.1-171l-.05 11.264"/><path d="M1111.01-152.236l-4.95-10.024 4.99 2.524 5.01-2.476z"/><path fill="none" stroke-width="2" stroke="#000" d="M1111.01-152.236l-4.95-10.024 4.99 2.524 5.01-2.476z"/></g><g><path fill="none" stroke-width="2" stroke="#000" d="M1060-208h41.36"/><path d="M1108.86-208l-10 5 2.5-5-2.5-5z"/><path fill="none" stroke-width="2" stroke="#000" d="M1108.86-208l-10 5 2.5-5-2.5-5z"/></g><g><path fill="#fff" d="M1207.03-86.055h102v38h-102z"/><path fill="none" stroke="#000" d="M1207.03-86.055h102v38h-102z"/><text font-size="12.8" x="1258.03" y="-63.155" text-anchor="middle" font-family="sans-serif" font-weight="400"><tspan x="1258.03" y="-63.155">Item Ethno</tspan></text></g><g><path fill="#fff" d="M1203.88-149.945h125.55v38h-125.55z"/><path fill="none" stroke="#000" d="M1203.88-149.945h125.55v38h-125.55z"/><text font-size="12.8" x="1266.65" y="-127.045" text-anchor="middle" font-family="sans-serif" font-weight="400"><tspan x="1266.65" y="-127.045">Collection Ethno</tspan></text></g><g><path fill="#fff" d="M1204-208h127.6v37H1204z"/><path fill="none" stroke="#000" d="M1204-208h127.6v37H1204z"/><text font-size="12.8" x="1267.8" y="-185.6" text-anchor="middle" font-family="sans-serif" font-weight="400"><tspan x="1267.8" y="-185.6">Ressource Ethno</tspan></text></g><g><path fill="none" stroke-width="2" stroke="#000" d="M1204-189.5h-32.06"/><path d="M1164.44-189.5l10-5-2.5 5 2.5 5z"/><path fill="none" stroke-width="2" stroke="#000" d="M1164.44-189.5l10-5-2.5 5 2.5 5z"/></g><g><path fill="none" stroke-width="2" stroke="#000" d="M1203.88-130.945l-32.14-.042"/><path d="M1164.24-130.997l10-4.987-2.5 4.997 2.49 5.003z"/><path fill="none" stroke-width="2" stroke="#000" d="M1164.24-130.997l10-4.987-2.5 4.997 2.49 5.003z"/></g><g><path fill="none" stroke-width="2" stroke="#000" d="M1207.03-67.055l-35.29.043"/><path d="M1164.24-67.003l9.99-5.012-2.49 5.003 2.5 4.997z"/><path fill="none" stroke-width="2" stroke="#000" d="M1164.24-67.003l9.99-5.012-2.49 5.003 2.5 4.997z"/></g><text font-size="12.8" x="1060" y="-252" font-family="sans-serif" font-weight="400"><tspan x="1060" y="-252">Telemeta-Core</tspan></text><text font-size="12.8" x="1204" y="-252" font-family="sans-serif" font-weight="400"><tspan x="1204" y="-252">module Telemeta-Ethno</tspan></text></svg>