<svg xmlns="http://www.w3.org/2000/svg" width="1052.362" height="744.094"><defs><marker orient="auto" id="e" overflow="visible"><path d="M8.719 4.034L-2.207.016 8.719-4.002c-1.746 2.372-1.736 5.618 0 8.036z" transform="matrix(-.3 0 0 -.3 .69 0)" fill-rule="evenodd" stroke-width=".625" stroke-linejoin="round"/></marker><marker orient="auto" id="d" overflow="visible"><path d="M.98 0a1 1 0 1 1-2 0 1 1 0 0 1 2 0z" fill-rule="evenodd" stroke="#000" stroke-width=".2pt"/></marker><marker orient="auto" id="b" overflow="visible"><path d="M8.719 4.034L-2.207.016 8.719-4.002c-1.746 2.372-1.736 5.618 0 8.036z" transform="rotate(180) scale(.6)" fill-rule="evenodd" stroke-width=".625" stroke-linejoin="round"/></marker><marker orient="auto" id="a" overflow="visible"><path d="M1.96 0a2 2 0 1 1-4.001-.001A2 2 0 0 1 1.96 0z" fill-rule="evenodd" stroke="#000" stroke-width=".4pt"/></marker><marker orient="auto" id="c" overflow="visible"><path d="M-4 0l-2 2 7-2-7-2 2 2z" fill-rule="evenodd" stroke="#000" stroke-width=".4pt"/></marker></defs><rect width="260.526" height="907.348" x="-439.613" y="69.89" ry="75.179" transform="rotate(-90)" opacity=".922" fill="#ffb100" fill-opacity=".197" stroke="#000" stroke-width="1.942"/><g transform="translate(0 -308.268)"><text style="line-height:125%;-inkscape-font-specification:Monospace Bold" x="552.207" y="478.655" font-size="32.341" font-weight="700" letter-spacing="0" word-spacing="0" font-family="Monospace"><tspan x="552.207" y="478.655">TimeSide ProcessPipe</tspan></text><text style="line-height:125%;-inkscape-font-specification:Monospace" x="147.703" y="864.668" font-size="28.748" font-weight="400" letter-spacing="0" word-spacing="0" fill="#0500a7" font-family="Monospace"><tspan x="147.703" y="864.668" style="-inkscape-font-specification:Courier 10 Pitch Bold" font-size="25.154" font-weight="700" font-family="Courier 10 Pitch">pipe = (decoder | analyzer1 | analyzer2 | encoder)</tspan></text><g transform="matrix(.89836 0 0 .89836 40.28 45.034)"><rect ry="45.017" y="552.408" x="303.499" height="170" width="202" opacity=".922" fill="#ff4500" stroke="#000" stroke-width="2.279"/><text y="542.408" x="317.914" style="line-height:125%;-inkscape-font-specification:Monospace" font-size="32" font-weight="400" letter-spacing="0" word-spacing="0" font-family="Monospace"><tspan y="542.408" x="317.914">analyzer1</tspan></text><text y="626.362" x="345.628" style="line-height:125%;-inkscape-font-specification:Monospace" font-size="32" font-weight="400" letter-spacing="0" word-spacing="0" font-family="Monospace"><tspan y="626.362" x="345.628" font-size="28">Python</tspan><tspan y="661.362" x="345.628" font-size="28">process</tspan></text><text y="822.408" x="404.306" style="text-align:center;line-height:125%;-inkscape-font-specification:Monospace" font-size="24" font-weight="400" letter-spacing="0" word-spacing="0" text-anchor="middle" font-family="Monospace"><tspan y="822.408" x="404.306">Result</tspan><tspan y="846.428" x="404.306" font-size="18">HDF5, JSON, YAML, XML</tspan></text><path d="M404.46 722.408v71.429" fill="none" stroke="#0009ff" stroke-width="4.1" marker-start="url(#a)" marker-end="url(#b)"/></g><text y="542.362" x="682.689" style="line-height:125%;-inkscape-font-specification:Monospace" font-size="32" font-weight="400" letter-spacing="0" word-spacing="0" font-family="Monospace" transform="matrix(.89836 0 0 .89836 198.321 45.076)"><tspan y="542.362" x="682.689">encoder</tspan></text><text transform="matrix(.89813 .02049 -.02049 .89813 198.321 45.076)" y="725.064" x="766.853" style="text-align:center;line-height:125%;-inkscape-font-specification:Monospace Italic" font-size="24" font-style="italic" font-weight="400" letter-spacing="0" word-spacing="0" text-anchor="middle" font-family="Monospace"><tspan style="text-align:center" y="725.064" x="766.853" font-size="20">gstreamer</tspan><tspan style="text-align:center" y="750.064" x="766.853" font-size="20">thread #2</tspan></text><rect width="217.021" height="191.961" x="42.16" y="552.154" ry="46.014" opacity=".922" fill="#adff2f" stroke="#000" stroke-width="1.902" transform="matrix(.74161 0 0 .79895 760.735 100.154)"/><g transform="matrix(0 -.89836 .89836 0 122.857 34.19)"><text y="868.796" x="-705.892" style="line-height:125%;-inkscape-font-specification:Monospace" font-size="20" font-weight="400" letter-spacing="0" word-spacing="0" font-family="Monospace"><tspan y="868.796" x="-705.892" font-size="18">lamemp3enc</tspan></text><rect ry="23.702" y="840.08" x="-715.165" height="47.403" width="126.732" opacity=".922" fill="none" stroke="#008200" stroke-width="3.573" stroke-linejoin="round" stroke-dasharray="7.14607064,3.57303532"/></g><g transform="matrix(0 -.89836 .89836 0 122.857 11.108)"><text y="808.236" x="-709.81" style="line-height:125%;-inkscape-font-specification:Monospace" font-size="20" font-weight="400" letter-spacing="0" word-spacing="0" font-family="Monospace"><tspan y="808.236" x="-709.81" font-size="18">appsrc</tspan></text><rect ry="23.702" y="781.366" x="-740.858" height="47.403" width="126.732" opacity=".922" fill="none" stroke="#008200" stroke-width="3.573" stroke-linejoin="round" stroke-dasharray="7.14607064,3.57303532"/></g><g transform="matrix(.89836 0 0 .89836 39.52 45.034)"><text y="542.362" x="82.689" style="line-height:125%;-inkscape-font-specification:Monospace" font-size="32" font-weight="400" letter-spacing="0" word-spacing="0" font-family="Monospace"><tspan y="542.362" x="82.689">decoder</tspan></text><rect ry="40.922" y="552.362" x="60.846" height="170.719" width="179.154" opacity=".922" fill="#adff2f" stroke="#000" stroke-width="1.63"/><text transform="rotate(1.307)" y="738.746" x="167.009" style="text-align:center;line-height:125%;-inkscape-font-specification:Monospace Italic" font-size="24" font-style="italic" font-weight="400" letter-spacing="0" word-spacing="0" text-anchor="middle" font-family="Monospace"><tspan style="text-align:center" y="738.746" x="167.009" font-size="20">gstreamer</tspan><tspan style="text-align:center" y="763.746" x="167.009" font-size="20">thread #1</tspan></text><g transform="rotate(-90 -6.36 1.295)"><text y="192.401" x="-683.099" style="line-height:125%;-inkscape-font-specification:Monospace" font-size="20" font-weight="400" letter-spacing="0" word-spacing="0" font-family="Monospace"><tspan y="192.401" x="-683.099" font-size="18">appsink</tspan></text><rect ry="23.702" y="163.733" x="-708.113" height="47.403" width="126.732" opacity=".922" fill="none" stroke="#008200" stroke-width="3.573" stroke-linejoin="round" stroke-dasharray="7.14607064,3.57303532"/></g><g transform="rotate(-90 .98 8.634)"><text y="135.431" x="-684.271" style="line-height:125%;-inkscape-font-specification:Monospace" font-size="20" font-weight="400" letter-spacing="0" word-spacing="0" font-family="Monospace"><tspan y="135.431" x="-684.271" font-size="18">uridecobin</tspan></text><rect ry="23.702" y="105.019" x="-693.435" height="47.403" width="126.732" fill="none" stroke="#008200" stroke-width="3.573" stroke-linejoin="round" stroke-dasharray="7.14607064,3.57303532"/></g></g><path d="M214.286 330.934v72.857" fill="none" stroke="#ff2000" stroke-width="4.1" marker-start="url(#a)" marker-end="url(#c)" transform="matrix(0 -.89836 .89836 0 -48.599 811.023)"/><text style="line-height:125%;-inkscape-font-specification:Monospace" x="179.714" y="707.791" font-size="22" font-weight="400" letter-spacing="0" word-spacing="0" font-family="Monospace" transform="matrix(0 -.89836 .89836 0 -357.893 854.658)"><tspan x="179.714" y="707.791">frames, eod</tspan></text><g transform="matrix(.89836 0 0 .89836 40.28 45.034)"><rect ry="45.017" y="552.362" x="566.422" height="170" width="202" opacity=".922" fill="#ff4500" stroke="#000" stroke-width="2.279"/><text y="542.362" x="581.109" style="line-height:125%;-inkscape-font-specification:Monospace" font-size="32" font-weight="400" letter-spacing="0" word-spacing="0" font-family="Monospace"><tspan y="542.362" x="581.109">analyzer2</tspan></text><text y="626.316" x="608.551" style="line-height:125%;-inkscape-font-specification:Monospace" font-size="32" font-weight="400" letter-spacing="0" word-spacing="0" font-family="Monospace"><tspan y="626.316" x="608.551" font-size="28">Python</tspan><tspan y="661.316" x="608.551" font-size="28">process</tspan></text><text y="822.362" x="667.229" style="text-align:center;line-height:125%;-inkscape-font-specification:Monospace" font-size="24" font-weight="400" letter-spacing="0" word-spacing="0" text-anchor="middle" font-family="Monospace"><tspan y="822.362" x="667.229">Result</tspan><tspan y="846.382" x="667.229" font-size="18">HDF5, JSON, YAML, XML</tspan></text><path d="M667.383 722.362v71.429" fill="none" stroke="#0009ff" stroke-width="4.1" marker-start="url(#a)" marker-end="url(#b)"/></g><path d="M214.286 330.934v72.857" fill="none" stroke="#ff2000" stroke-width="4.1" marker-start="url(#a)" marker-end="url(#c)" transform="matrix(0 -.89836 .89836 0 190.366 811.023)"/><text style="line-height:125%;-inkscape-font-specification:Monospace" x="179.714" y="707.791" font-size="22" font-weight="400" letter-spacing="0" word-spacing="0" font-family="Monospace" transform="matrix(0 -.89836 .89836 0 -118.928 854.658)"><tspan x="179.714" y="707.791">frames, eod</tspan></text><path d="M214.286 330.934v72.857" fill="none" stroke="#ff2000" stroke-width="4.1" marker-start="url(#a)" marker-end="url(#c)" transform="matrix(0 -.89836 .89836 0 427.534 811.023)"/><text style="line-height:125%;-inkscape-font-specification:Monospace" x="179.714" y="707.791" font-size="22" font-weight="400" letter-spacing="0" word-spacing="0" font-family="Monospace" transform="matrix(0 -.89836 .89836 0 118.24 854.658)"><tspan x="179.714" y="707.791">frames, eod</tspan></text><g transform="translate(-27.103 -397.328)"><text y="843.69" x="35.103" style="line-height:125%;-inkscape-font-specification:Courier 10 Pitch" font-size="32" font-weight="400" letter-spacing="0" word-spacing="0" font-family="Courier 10 Pitch"><tspan style="-inkscape-font-specification:Courier 10 Pitch Bold" y="843.69" x="35.103" font-size="28" font-weight="700">source.wav</tspan></text><rect rx="10" ry="1.328" y="822.362" x="20" height="30" width="200" fill="#3bff00" fill-opacity=".197" stroke="#008200" stroke-width="4.1" stroke-linejoin="round"/></g><g><g transform="matrix(.89836 0 0 .89836 102.36 24.597)"><text style="line-height:125%;-inkscape-font-specification:Courier 10 Pitch" x="859.686" y="850.192" font-size="32" font-weight="400" letter-spacing="0" word-spacing="0" font-family="Courier 10 Pitch"><tspan x="859.686" y="850.192" style="-inkscape-font-specification:Courier 10 Pitch Bold" font-size="28" font-weight="700">output.mp3</tspan></text><rect width="205.946" height="43.395" x="840" y="822.362" ry="10.001" rx="10" fill="#3bff00" fill-opacity=".197" stroke="#008200" stroke-width="4.1" stroke-linejoin="round"/></g></g><rect width="242.558" height="62.886" x="285.498" y="756.864" rx="8.984" ry="8.984" fill="#00b9ff" fill-opacity=".139" stroke="#050082" stroke-width="3.683" stroke-linejoin="round"/><rect width="242.558" height="62.886" x="528.056" y="756.864" rx="8.984" ry="8.984" fill="#00b9ff" fill-opacity=".139" stroke="#050082" stroke-width="3.683" stroke-linejoin="round"/><path d="M955.324 621.609h34.849v134.303" fill="none" stroke="#008309" stroke-width="4.88" marker-start="url(#d)" marker-end="url(#e)"/><path d="M50 462.362v150l39.003-.461" fill="none" stroke="#008309" stroke-width="5.532" marker-start="url(#d)" marker-end="url(#e)"/></g></svg>